<svg version="1.1" id="Layer_1" xmlns="http://www.w3.org/2000/svg" xmlns:xlink="http://www.w3.org/1999/xlink" x="0px" y="0px"
	 width="100%" viewBox="0 0 259 132" enable-background="new 0 0 259 132" xml:space="preserve">
<path fill="#FFFFFF" opacity="1.000000" stroke="none" 
	d="
M1.000000,128.000000 
	C1.000000,85.737999 1.000000,43.475998 1.000000,1.000000 
	C45.020664,1.000000 89.041672,1.000000 133.525848,1.417028 
	C133.334473,7.862504 132.605209,13.839025 124.518127,14.978811 
	C122.100136,16.056900 120.037888,17.105103 117.611206,18.083080 
	C115.178307,16.969755 113.109825,15.926657 110.895538,14.579424 
	C108.744553,13.034533 106.739372,11.793774 104.478165,10.309193 
	C101.313332,8.070251 98.404518,6.075131 95.495712,4.080011 
	C95.190605,4.387898 94.885498,4.695785 94.580391,5.003672 
	C96.682999,7.685244 98.785606,10.366816 100.936806,13.398441 
	C102.617523,15.846651 104.249649,17.944805 105.933762,20.395218 
	C107.047745,22.501789 108.109749,24.256104 109.091034,26.380302 
	C107.306046,31.480299 105.601784,36.210411 103.533562,40.962154 
	C102.445175,41.041843 101.720741,41.099895 100.549377,41.095116 
	C94.242065,41.446999 88.381676,41.861713 81.237053,42.367306 
	C82.992981,42.812962 83.439919,42.926395 84.036224,43.317612 
	C84.785622,43.748276 85.385643,43.901157 85.988831,44.033226 
	C85.991997,44.012417 85.955452,44.035748 86.118950,44.349075 
	C92.817436,48.141930 99.352432,51.621456 106.033386,55.419212 
	C107.366119,57.971592 108.552872,60.205738 109.726639,62.415428 
	C108.774261,63.676369 107.895828,64.839417 106.565582,66.002548 
	C101.136833,66.972237 96.132256,67.821144 91.192284,68.952263 
	C87.678185,69.756889 85.880478,72.512115 87.213562,75.669655 
	C88.131165,77.843086 90.612785,79.842476 92.871773,80.830956 
	C95.286476,81.887589 98.260567,81.665894 101.156860,82.251266 
	C101.884201,82.668472 102.445175,82.836601 103.474426,83.003769 
	C112.638084,82.858788 121.333458,82.714775 130.061783,82.897934 
	C132.385452,87.162827 134.676178,91.100555 136.978546,95.023277 
	C136.990173,95.008270 136.958755,95.020538 137.034775,95.273392 
	C137.393173,95.725632 137.675537,95.925018 138.003433,96.474113 
	C138.225525,96.980927 138.388870,97.161163 138.589615,97.276031 
	C138.630798,97.299606 138.912430,97.080139 138.914124,96.970085 
	C138.985779,92.313492 139.038239,87.656609 139.555878,82.997673 
	C145.470581,82.995438 150.924576,83.089943 156.373764,82.968758 
	C161.930038,82.845184 167.481628,82.509560 173.237793,82.159752 
	C173.440338,82.052719 173.887192,81.951607 174.204681,82.068672 
	C176.572296,81.808136 178.619385,81.412918 180.673294,81.057129 
	C183.617462,80.547112 186.017410,79.711853 186.053635,75.922485 
	C186.088654,72.260674 184.648178,69.691452 181.157776,68.964622 
	C175.423569,67.770569 169.596909,67.020546 163.528641,65.900513 
	C162.535797,64.162498 161.823532,62.607265 161.402664,60.925823 
	C162.142746,59.903503 162.591415,59.007389 163.367844,57.924984 
	C164.478058,54.197960 165.260513,50.657227 166.441330,47.054207 
	C170.554672,46.089890 174.269653,45.187851 177.984619,44.285816 
	C177.941971,43.950993 177.899323,43.616165 177.856674,43.281342 
	C174.237381,42.574753 170.618073,41.868164 166.705688,41.009769 
	C166.220505,40.237431 166.028412,39.616901 165.903198,38.618103 
	C165.258163,36.159485 164.546249,34.079140 163.899445,31.648174 
	C162.922104,29.532684 161.879654,27.767813 160.912628,25.646873 
	C164.357925,19.883482 167.727814,14.476161 171.077652,9.053702 
	C171.057617,9.038566 171.050629,9.087584 171.353821,8.960049 
	C172.140228,7.900226 172.623444,6.967936 173.368286,5.887327 
	C172.730621,5.812038 171.831360,5.885069 170.950653,5.967896 
	C170.969208,5.977693 170.950638,5.934300 170.604950,5.967649 
	C168.486099,7.294859 166.712921,8.588720 164.695282,9.984430 
	C164.262115,10.376451 164.073425,10.666620 163.560425,10.976236 
	C162.451385,11.645855 161.666687,12.296028 160.575165,13.091450 
	C157.690643,15.772833 155.205811,18.528210 150.652512,17.009632 
	C147.879791,15.955045 145.433701,15.062607 142.653946,14.003160 
	C140.562164,12.849783 138.804047,11.863415 137.026535,10.458515 
	C136.671432,7.026656 136.335724,4.013328 136.000000,1.000000 
	C177.262039,1.000000 218.524063,1.000000 260.000000,1.000000 
	C260.000000,44.020657 260.000000,87.041672 259.666412,130.443970 
	C258.261200,129.199203 257.189575,127.573151 256.064911,125.640640 
	C255.702438,124.856499 255.392990,124.378807 255.052368,123.536194 
	C252.004990,118.174133 248.988770,113.176994 245.620514,107.951691 
	C245.045273,106.523552 244.822067,105.323563 244.511108,103.651703 
	C240.796082,104.083702 237.349548,104.484482 233.595978,105.055847 
	C231.147964,109.132614 229.007004,113.038795 226.557220,117.105850 
	C225.460907,119.163826 224.673416,121.060928 223.574799,123.095917 
	C222.479446,124.803879 221.695190,126.373962 220.948669,127.965576 
	C220.986389,127.987114 220.949524,127.908447 220.696960,127.989426 
	C220.351639,128.376862 220.258881,128.683304 220.028946,129.303223 
	C219.261169,130.744446 218.630569,131.872223 218.000000,133.000000 
	C214.638718,133.000000 211.277420,133.000000 207.561890,132.651917 
	C209.851959,130.508118 210.513290,127.995468 209.921432,124.578522 
	C209.948349,122.427780 209.901138,120.701447 209.927307,118.565033 
	C208.109695,111.757965 203.436035,116.446815 200.170425,114.788818 
	C200.170425,117.788376 200.170425,119.898666 200.100616,122.433502 
	C200.075760,124.575096 200.120743,126.292152 200.097107,128.375854 
	C200.314987,129.842850 200.601471,130.943207 200.939316,132.279938 
	C200.990662,132.516327 201.000000,133.000000 201.000000,133.000000 
	C193.979050,133.000000 186.958099,133.000000 179.562744,132.659882 
	C183.500244,128.852554 184.498886,124.229523 183.898407,118.770226 
	C183.932693,118.345413 183.895279,118.173981 183.929504,117.613892 
	C183.689667,115.795555 183.378189,114.365883 183.035309,112.559937 
	C182.680389,111.075752 182.356888,109.967842 181.881165,108.535767 
	C178.818085,107.195564 175.907242,106.179535 172.583557,105.095169 
	C170.780273,105.070053 169.389786,105.113274 167.626358,105.087021 
	C166.499619,105.064827 165.745850,105.112114 164.577454,105.078377 
	C160.454071,104.726418 156.745300,104.455490 152.665344,104.206314 
	C149.013657,105.538460 144.835587,105.862076 144.603958,111.136475 
	C144.228516,113.903412 144.200928,116.440590 144.097229,119.374718 
	C144.073792,120.844193 144.126465,121.916718 144.107040,123.379326 
	C144.515381,127.199173 144.716690,130.792938 148.943573,132.283981 
	C148.988510,132.519867 149.000000,133.000000 149.000000,133.000000 
	C144.310745,133.000000 139.621490,133.000000 134.392334,132.682892 
	C132.581543,131.205231 131.310669,130.044708 129.927307,128.585876 
	C129.225189,127.484596 128.635559,126.681610 127.951767,125.601242 
	C127.250771,124.851639 126.643936,124.379417 125.972137,123.667336 
	C125.712563,123.121223 125.433884,122.963608 125.178474,122.608047 
	C127.892677,120.858574 130.499557,119.455688 133.435547,117.908203 
	C135.463760,116.504242 137.162872,115.244881 138.933502,113.608109 
	C138.681610,112.098495 138.358231,110.966278 137.860687,109.526276 
	C133.986557,108.183533 131.727707,103.586121 126.830994,104.558052 
	C120.703148,104.422127 114.812523,104.651245 108.566605,104.939461 
	C107.204323,106.657028 106.197350,108.315498 105.122177,110.406311 
	C105.990341,111.545723 106.913422,112.843048 107.865204,112.864479 
	C114.236946,113.007896 120.614792,112.879555 127.208557,112.914406 
	C127.426460,112.989418 127.885574,113.035576 127.927765,113.424210 
	C126.652451,114.264977 125.334953,114.717110 123.617371,115.092934 
	C117.575134,113.716202 117.117012,119.250343 113.307327,122.107712 
	C115.734360,122.962761 117.341644,123.529015 119.021317,124.332596 
	C119.288918,124.868576 119.564102,125.034889 119.863937,125.374443 
	C116.830132,128.007339 119.482590,128.902832 121.008774,130.336121 
	C121.274231,130.869720 121.547409,131.026093 121.941345,131.363678 
	C121.986076,132.126572 121.993042,132.563293 122.000000,133.000000 
	C112.979103,133.000000 103.958214,133.000000 94.582550,132.653091 
	C100.663635,130.470978 102.742126,125.461327 100.017090,120.660416 
	C99.989510,120.436371 99.839020,120.010704 99.835861,119.685562 
	C99.329025,118.970398 98.825340,118.580376 98.204102,117.926491 
	C97.404602,117.398666 96.722656,117.134705 95.865707,116.551224 
	C94.481598,116.130119 93.272476,116.028534 91.834732,115.561432 
	C87.440445,115.116814 83.274796,115.037720 78.981262,114.638672 
	C79.900002,113.825294 80.946632,113.331879 82.425880,112.913559 
	C84.905594,112.938553 86.952690,112.888451 89.442032,112.910645 
	C91.860771,112.984627 93.839951,113.052979 95.813164,112.973427 
	C99.379669,112.829620 99.963150,110.089279 99.879059,107.477036 
	C99.793427,104.817490 97.953934,104.158142 95.439133,104.936272 
	C94.374290,105.265770 93.156059,105.099564 91.572327,105.091782 
	C89.091125,105.069489 87.045151,105.114075 84.585266,105.092430 
	C82.778458,105.071678 81.385574,105.117149 79.587479,105.093468 
	C69.740471,105.227669 65.467461,111.675613 70.017380,119.321686 
	C70.724022,119.752586 71.309906,119.898064 72.099945,120.390350 
	C78.157898,121.178139 84.011719,121.619133 90.024506,122.384857 
	C92.169350,125.929573 89.028854,124.607872 87.636925,125.088432 
	C86.511620,125.063438 85.757935,125.114548 84.609001,125.093300 
	C83.146729,125.071533 82.079704,125.122124 80.616852,125.096512 
	C79.150513,125.070457 78.079979,125.120598 76.613541,125.095261 
	C75.147865,125.069855 74.078102,125.119934 72.614761,125.098465 
	C70.485069,126.297035 68.503830,127.348785 67.104843,128.919220 
	C66.266273,129.860535 66.337616,131.612427 66.000000,133.000000 
	C61.310745,133.000000 56.621487,133.000000 51.560997,132.665100 
	C52.407795,130.225464 53.625828,128.120728 54.956810,125.737679 
	C55.425838,124.987167 55.781918,124.514954 56.442047,123.892807 
	C57.536251,122.172211 58.326405,120.601562 59.425888,118.875961 
	C62.431698,114.294647 65.128181,109.868301 67.997131,105.158836 
	C65.925186,105.158836 64.461494,105.158836 62.653206,105.085236 
	C60.749851,105.310921 58.455814,105.070580 57.767368,106.008614 
	C55.517548,109.074112 53.852745,112.568970 51.725388,115.955002 
	C51.487831,116.011314 51.014355,116.130630 50.681030,115.958969 
	C47.912914,110.036705 42.868019,112.665031 37.957825,111.955757 
	C39.636307,114.598015 41.342587,116.567192 42.220474,118.854340 
	C43.231384,121.488060 46.999474,123.301010 44.573326,127.092308 
	C43.174717,129.156448 42.087357,131.078232 41.000000,133.000000 
	C37.307091,133.000000 33.614182,133.000000 29.571304,132.652924 
	C35.162594,129.559845 36.306110,126.669136 34.003479,119.662048 
	C33.276527,118.876076 32.657040,118.373383 31.877758,117.549141 
	C30.138523,116.875214 28.559080,116.522827 26.762939,116.094742 
	C26.546240,116.019035 26.092375,115.949997 25.859829,115.584595 
	C21.414850,115.205925 17.202417,115.192657 12.725344,115.061417 
	C12.251750,114.626038 12.042797,114.308632 11.943994,113.722076 
	C12.369624,113.240005 12.685106,113.027084 13.463802,112.887100 
	C20.226521,112.647827 26.526022,112.335617 32.995625,111.671761 
	C33.159416,109.208160 33.153107,107.096199 32.915138,104.606796 
	C26.418316,104.462936 20.153147,104.696526 13.498425,104.958878 
	C12.076350,105.072296 11.043828,105.156952 9.661257,105.273407 
	C3.381253,108.342567 1.451930,111.566322 2.952675,116.354080 
	C3.643953,117.463989 4.270652,118.257576 4.983726,119.285217 
	C5.256608,119.828712 5.529692,120.000702 6.092182,120.384125 
	C12.151928,121.167091 18.008841,121.601151 24.013933,122.343124 
	C24.669430,122.965599 25.176746,123.280151 25.684067,123.594704 
	C24.460802,124.120041 23.237535,124.645370 21.590967,125.093300 
	C19.450544,125.067604 17.733421,125.119308 15.620398,125.093346 
	C14.153060,125.065941 13.081624,125.116203 11.613979,125.092499 
	C10.147205,125.067238 9.076640,125.115952 7.611307,125.092079 
	C5.144360,126.013000 3.072180,127.006500 1.000000,128.000000 
M191.316742,105.012001 
	C190.861694,105.314827 190.406631,105.617661 189.232132,106.362816 
	C189.232132,108.443268 189.232132,110.523712 189.232132,112.937607 
	C199.619293,112.937607 209.796066,112.945526 219.972580,112.897667 
	C220.264389,112.896301 220.553421,112.302864 220.972504,111.327545 
	C220.925156,110.885132 220.877792,110.442711 220.960968,109.267220 
	C220.015274,107.830429 219.069565,106.393639 217.676376,104.213295 
	C214.114227,104.198677 210.552078,104.184059 206.072311,104.017807 
	C201.348679,104.311172 196.625031,104.604538 191.316742,105.012001 
z"/>
<path fill="#FFFFFF" opacity="1.000000" stroke="none" 
	d="
M250.000000,133.000000 
	C242.979050,133.000000 235.958099,133.000000 228.565781,132.663239 
	C229.504105,129.897491 230.813797,127.468521 232.440643,124.909599 
	C233.553513,123.198517 234.349258,121.617386 235.457565,119.904953 
	C236.853104,118.131989 237.936096,116.490326 239.338928,115.005219 
	C242.083649,119.135742 244.508545,123.109726 247.055084,127.373161 
	C247.748016,128.453384 248.319305,129.244156 248.944290,130.360565 
	C249.331985,131.457489 249.665985,132.228745 250.000000,133.000000 
z"/>
<path fill="#12649E" opacity="1.000000" stroke="none" 
	d="
M135.666672,1.000000 
	C136.335724,4.013328 136.671432,7.026656 137.012848,10.870234 
	C136.014648,15.126657 135.010742,18.552830 133.635696,21.988119 
	C132.184921,22.631382 131.105286,23.265528 129.748672,24.105787 
	C127.990211,24.913654 126.508713,25.515406 124.921425,25.879261 
	C124.544159,25.433201 124.272690,25.225042 124.037277,24.659904 
	C125.177689,22.519876 126.384789,20.791073 127.361725,18.940741 
	C128.741623,16.327194 127.877899,14.924650 124.873863,14.948924 
	C132.605209,13.839025 133.334473,7.862504 133.994507,1.417028 
	C134.444443,1.000000 134.888901,1.000000 135.666672,1.000000 
z"/>
<path fill="#023A6A" opacity="1.000000" stroke="none" 
	d="
M183.826706,119.023613 
	C184.498886,124.229523 183.500244,128.852554 179.094177,132.659882 
	C176.629440,133.000000 174.258896,133.000000 171.478851,132.649994 
	C174.390305,127.886780 177.711227,123.473579 181.357101,119.039795 
	C182.116211,119.004593 182.550385,118.989990 183.194885,118.991081 
	C183.405212,119.006775 183.826706,119.023613 183.826706,119.023613 
z"/>
<path fill="#06487C" opacity="1.000000" stroke="none" 
	d="
M32.037548,117.870689 
	C32.657040,118.373383 33.276527,118.876076 33.690815,119.808846 
	C30.323746,124.492615 27.161875,128.746307 24.000004,133.000000 
	C22.285643,133.000000 20.571283,133.000000 18.431898,132.637268 
	C19.342670,129.906601 20.678471,127.538651 22.014271,125.170700 
	C23.237535,124.645370 24.460802,124.120041 25.684067,123.594704 
	C25.176746,123.280151 24.669430,122.965599 24.340174,122.190903 
	C27.024673,120.444084 29.531111,119.157387 32.037548,117.870689 
z"/>
<path fill="#074B81" opacity="1.000000" stroke="none" 
	d="
M181.032150,119.060379 
	C177.711227,123.473579 174.390305,127.886780 171.034683,132.649994 
	C168.958328,133.000000 166.916672,133.000000 164.474655,132.647186 
	C165.055450,129.921631 166.036575,127.548882 167.414612,125.106491 
	C170.933273,125.263542 173.549332,124.697693 174.512009,120.938080 
	C176.920975,120.279648 178.976562,119.670006 181.032150,119.060379 
z"/>
<path fill="#013868" opacity="1.000000" stroke="none" 
	d="
M24.416668,133.000000 
	C27.161875,128.746307 30.323746,124.492615 33.798279,120.092117 
	C36.306110,126.669136 35.162594,129.559845 29.110668,132.652924 
	C27.611111,133.000000 26.222221,133.000000 24.416668,133.000000 
z"/>
<path fill="#0C5691" opacity="1.000000" stroke="none" 
	d="
M235.145004,120.036255 
	C234.349258,121.617386 233.553513,123.198517 232.084564,124.927994 
	C228.607574,127.717560 225.803787,130.358780 223.000000,133.000000 
	C221.611115,133.000000 220.222214,133.000000 218.416656,133.000000 
	C218.630569,131.872223 219.261169,130.744446 220.221405,129.173096 
	C220.788147,128.506454 220.920975,128.232758 220.949524,127.908447 
	C220.949524,127.908447 220.986389,127.987114 221.321045,127.979218 
	C223.024841,127.226845 224.420074,126.526169 225.757843,125.729080 
	C228.901489,123.855972 232.017700,121.936790 235.145004,120.036255 
z"/>
<path fill="#013868" opacity="1.000000" stroke="none" 
	d="
M100.044678,120.884460 
	C102.742126,125.461327 100.663635,130.470978 94.113892,132.653091 
	C93.250000,133.000000 92.500000,133.000000 91.409286,132.652603 
	C94.060600,128.498291 97.052635,124.691376 100.044678,120.884460 
z"/>
<path fill="#023A6A" opacity="1.000000" stroke="none" 
	d="
M250.486572,133.000000 
	C249.665985,132.228745 249.331985,131.457489 249.298752,130.321960 
	C251.772324,128.620819 253.945129,127.283951 256.117950,125.947083 
	C257.189575,127.573151 258.261200,129.199203 259.666412,130.912628 
	C259.547974,131.666656 259.137512,132.870865 258.636993,132.909531 
	C256.095215,133.105850 253.530075,133.000000 250.486572,133.000000 
z"/>
<path fill="#074B81" opacity="1.000000" stroke="none" 
	d="
M88.008537,125.164536 
	C89.028854,124.607872 92.169350,125.929573 90.247833,122.092789 
	C92.207306,120.982124 94.102409,120.488258 95.964340,120.344490 
	C93.287430,124.796394 90.643715,128.898193 88.000000,133.000000 
	C86.933327,133.000000 85.866661,133.000000 84.433578,132.653381 
	C85.380959,129.926025 86.694748,127.545280 88.008537,125.164536 
z"/>
<path fill="#043F71" opacity="1.000000" stroke="none" 
	d="
M88.375000,133.000000 
	C90.643715,128.898193 93.287430,124.796394 96.272896,120.315338 
	C97.027519,119.923950 97.440392,119.911819 98.183609,119.936874 
	C98.955643,119.986275 99.397331,119.998489 99.839020,120.010704 
	C99.839020,120.010704 99.989510,120.436371 100.017090,120.660416 
	C97.052635,124.691376 94.060600,128.498291 91.034286,132.652603 
	C90.250000,133.000000 89.500000,133.000000 88.375000,133.000000 
z"/>
<path fill="#0C5691" opacity="1.000000" stroke="none" 
	d="
M21.590969,125.093300 
	C20.678471,127.538651 19.342670,129.906601 18.003435,132.637268 
	C16.285641,133.000000 14.571283,133.000000 12.462404,132.653503 
	C13.384022,129.928345 14.700160,127.549683 16.016300,125.171013 
	C17.733421,125.119308 19.450544,125.067604 21.590969,125.093300 
z"/>
<path fill="#106AA6" opacity="1.000000" stroke="none" 
	d="
M56.138000,124.042747 
	C55.781918,124.514954 55.425838,124.987167 54.568161,125.733253 
	C49.067032,125.774368 46.748783,129.018021 45.000000,133.000000 
	C43.933331,133.000000 42.866661,133.000000 41.399994,133.000000 
	C42.087357,131.078232 43.174717,129.156448 44.911125,127.079803 
	C46.707657,125.945641 47.855145,124.966370 49.447529,123.990021 
	C51.974281,124.009537 54.056141,124.026146 56.138000,124.042747 
z"/>
<path fill="#0D5A95" opacity="1.000000" stroke="none" 
	d="
M45.428463,133.000000 
	C46.748783,129.018021 49.067032,125.774368 54.455215,126.011559 
	C53.625828,128.120728 52.407795,130.225464 51.094879,132.665100 
	C49.285641,133.000000 47.571285,133.000000 45.428463,133.000000 
z"/>
<path fill="#0D5A95" opacity="1.000000" stroke="none" 
	d="
M167.017715,125.176125 
	C166.036575,127.548882 165.055450,129.921631 164.037155,132.647186 
	C162.611115,133.000000 161.222214,133.000000 159.450073,132.650192 
	C160.381012,129.922348 161.695206,127.544304 163.406937,125.097183 
	C164.875549,125.077446 165.946640,125.126785 167.017715,125.176125 
z"/>
<path fill="#1266A6" opacity="1.000000" stroke="none" 
	d="
M163.009399,125.166260 
	C161.695206,127.544304 160.381012,129.922348 159.033417,132.650192 
	C157.611115,133.000000 156.222214,133.000000 154.451660,132.653488 
	C155.384476,129.928162 156.698944,127.549355 158.425964,125.101372 
	C160.228806,125.076889 161.619095,125.121574 163.009399,125.166260 
z"/>
<path fill="#0A5085" opacity="1.000000" stroke="none" 
	d="
M201.428467,133.000000 
	C201.000000,133.000000 200.990662,132.516327 201.248520,132.138840 
	C204.286682,129.508530 207.067001,127.255722 209.847321,125.002914 
	C210.513290,127.995468 209.851959,130.508118 207.103821,132.651917 
	C205.285645,133.000000 203.571289,133.000000 201.428467,133.000000 
z"/>
<path fill="#1672B7" opacity="1.000000" stroke="none" 
	d="
M158.013428,125.170540 
	C156.698944,127.549355 155.384476,129.928162 154.035004,132.653488 
	C152.611115,133.000000 151.222214,133.000000 149.416656,133.000000 
	C149.000000,133.000000 148.988510,132.519867 149.228271,132.096375 
	C150.648834,129.449829 151.829636,127.226799 153.358612,125.000114 
	C154.170975,124.984329 154.635162,124.972198 155.465302,124.977348 
	C156.558640,125.053268 157.286026,125.111900 158.013428,125.170540 
z"/>
<path fill="#1979C0" opacity="1.000000" stroke="none" 
	d="
M1.000000,128.499969 
	C3.072180,127.006500 5.144360,126.013000 7.566180,125.429100 
	C6.610547,128.225800 5.305273,130.612900 4.000000,133.000000 
	C0.029752,133.894287 1.085159,131.019394 1.000000,128.499969 
z"/>
<path fill="#074B81" opacity="1.000000" stroke="none" 
	d="
M223.416656,133.000000 
	C225.803787,130.358780 228.607574,127.717560 231.767426,125.057953 
	C230.813797,127.468521 229.504105,129.897491 228.097198,132.663239 
	C226.611115,133.000000 225.222214,133.000000 223.416656,133.000000 
z"/>
<path fill="#1266A6" opacity="1.000000" stroke="none" 
	d="
M15.620398,125.093346 
	C14.700160,127.549683 13.384022,129.928345 12.033941,132.653503 
	C10.933331,133.000000 9.866661,133.000000 8.431761,132.649521 
	C9.379083,129.921509 10.694637,127.543991 12.010189,125.166458 
	C13.081624,125.116203 14.153060,125.065941 15.620398,125.093346 
z"/>
<path fill="#1572B5" opacity="1.000000" stroke="none" 
	d="
M11.613981,125.092499 
	C10.694637,127.543991 9.379083,129.921509 8.031765,132.649521 
	C6.933331,133.000000 5.866662,133.000000 4.399996,133.000000 
	C5.305273,130.612900 6.610547,128.225800 7.960948,125.501678 
	C9.076640,125.115952 10.147205,125.067238 11.613981,125.092499 
z"/>
<path fill="#1572B5" opacity="1.000000" stroke="none" 
	d="
M73.008331,125.170013 
	C74.078102,125.119934 75.147865,125.069855 76.567329,125.432434 
	C75.611343,128.230057 74.305672,130.615021 73.000000,133.000000 
	C71.933434,133.000000 70.866859,133.000000 69.434845,132.653000 
	C70.382378,129.927338 71.695358,127.548676 73.008331,125.170013 
z"/>
<path fill="#1266A6" opacity="1.000000" stroke="none" 
	d="
M73.399994,133.000000 
	C74.305672,130.615021 75.611343,128.230057 76.963242,125.507904 
	C78.079979,125.120598 79.150513,125.070457 80.570457,125.433228 
	C79.613251,128.230759 78.306625,130.615372 77.000000,133.000000 
	C75.933327,133.000000 74.866661,133.000000 73.399994,133.000000 
z"/>
<path fill="#0D5A95" opacity="1.000000" stroke="none" 
	d="
M77.399994,133.000000 
	C78.306625,130.615372 79.613251,128.230759 80.966278,125.509422 
	C82.079704,125.122124 83.146729,125.071533 84.564407,125.431763 
	C83.610039,128.228394 82.305016,130.614197 81.000000,133.000000 
	C79.933327,133.000000 78.866661,133.000000 77.399994,133.000000 
z"/>
<path fill="#1979C0" opacity="1.000000" stroke="none" 
	d="
M72.614761,125.098465 
	C71.695358,127.548676 70.382378,129.927338 69.034698,132.653000 
	C68.250000,133.000000 67.500000,133.000000 66.375000,133.000000 
	C66.337616,131.612427 66.266273,129.860535 67.104843,128.919220 
	C68.503830,127.348785 70.485069,126.297035 72.614761,125.098465 
z"/>
<path fill="#0D568B" opacity="1.000000" stroke="none" 
	d="
M81.375000,133.000000 
	C82.305016,130.614197 83.610039,128.228394 84.959656,125.504120 
	C85.757935,125.114548 86.511620,125.063438 87.636925,125.088432 
	C86.694748,127.545280 85.380959,129.926025 84.033585,132.653381 
	C83.250000,133.000000 82.500000,133.000000 81.375000,133.000000 
z"/>
<path fill="#0D5A95" opacity="1.000000" stroke="none" 
	d="
M126.037094,123.907196 
	C126.643936,124.379417 127.250771,124.851639 127.933380,125.984451 
	C127.339439,128.763367 126.669724,130.881683 126.000000,133.000000 
	C124.933479,133.000000 123.866966,133.000000 122.400223,133.000000 
	C121.993042,132.563293 121.986076,132.126572 122.296692,131.305573 
	C123.755203,128.583252 124.896149,126.245224 126.037094,123.907196 
z"/>
<path fill="#023A6A" opacity="1.000000" stroke="none" 
	d="
M130.039795,128.884186 
	C131.310669,130.044708 132.581543,131.205231 133.926208,132.682892 
	C132.285645,133.000000 130.571289,133.000000 128.458496,132.666092 
	C128.719955,131.182846 129.379883,130.033524 130.039795,128.884186 
z"/>
<path fill="#06487C" opacity="1.000000" stroke="none" 
	d="
M129.927307,128.585876 
	C129.379883,130.033524 128.719955,131.182846 128.030029,132.666092 
	C127.555557,133.000000 127.111107,133.000000 126.333328,133.000000 
	C126.669724,130.881683 127.339439,128.763367 128.027542,126.261826 
	C128.635559,126.681610 129.225189,127.484596 129.927307,128.585876 
z"/>
<path fill="#F5F8F9" opacity="1.000000" stroke="none" 
	d="
M130.028839,82.570763 
	C121.333458,82.714775 112.638084,82.858788 103.306732,82.755806 
	C102.110672,82.339935 101.550575,82.171059 100.990486,82.002182 
	C98.260567,81.665894 95.286476,81.887589 92.871773,80.830956 
	C90.612785,79.842476 88.131165,77.843086 87.213562,75.669655 
	C85.880478,72.512115 87.678185,69.756889 91.192284,68.952263 
	C96.132256,67.821144 101.136833,66.972237 106.599518,66.355606 
	C105.674820,69.100800 104.264381,71.493019 102.868370,73.898399 
	C102.882790,73.911560 102.921577,73.909264 102.627975,73.981705 
	C102.079529,74.581825 101.824677,75.109497 101.641739,75.608589 
	C101.713654,75.580009 101.586586,75.666985 101.337883,75.773941 
	C100.988503,76.216972 100.887833,76.553047 100.837585,76.898529 
	C100.888016,76.907928 100.861237,76.808876 100.585968,76.878113 
	C100.240738,77.294647 100.170784,77.641930 100.149399,78.340111 
	C101.730751,78.433540 103.263535,78.176079 105.199265,77.979141 
	C109.068153,78.359718 112.534081,78.679764 116.374702,78.996994 
	C117.498650,79.007507 118.247910,79.020844 119.063721,79.385330 
	C120.754021,79.823029 122.377769,79.909584 124.413147,79.992661 
	C126.194611,79.991959 127.564438,79.994743 129.137146,80.288765 
	C129.569626,81.243584 129.799225,81.907173 130.028839,82.570763 
z"/>
<path fill="#F2F5F6" opacity="1.000000" stroke="none" 
	d="
M163.809235,66.083298 
	C169.596909,67.020546 175.423569,67.770569 181.157776,68.964622 
	C184.648178,69.691452 186.088654,72.260674 186.053635,75.922485 
	C186.017410,79.711853 183.617462,80.547112 180.673294,81.057129 
	C178.619385,81.412918 176.572296,81.808136 174.213577,81.724014 
	C170.539734,76.202621 167.174484,71.142960 163.809235,66.083298 
z"/>
<path fill="#F0F3F4" opacity="1.000000" stroke="none" 
	d="
M173.035263,82.266785 
	C167.481628,82.509560 161.930038,82.845184 156.373764,82.968758 
	C150.924576,83.089943 145.470581,82.995438 139.412720,82.758644 
	C138.725708,82.354485 138.644699,82.187279 138.668182,81.689079 
	C138.852951,80.902512 138.933258,80.446922 139.434799,79.990273 
	C141.940231,79.373398 144.024414,78.757591 146.495819,78.124008 
	C147.915070,78.096069 148.947113,78.085907 150.255524,78.346794 
	C154.792313,77.665581 159.052734,76.713326 163.599609,75.851990 
	C164.587128,76.300224 165.288208,76.657539 166.193207,77.275742 
	C168.609833,79.113350 170.822540,80.690063 173.035263,82.266785 
z"/>
<path fill="#0583A9" opacity="1.000000" stroke="none" 
	d="
M246.933426,127.083702 
	C244.508545,123.109726 242.083649,119.135742 239.337570,114.788773 
	C239.016373,114.415787 239.014420,113.982910 239.208618,113.786819 
	C243.236862,113.783340 244.773621,111.186684 245.972565,108.179855 
	C248.988770,113.176994 252.004990,118.174133 254.671448,123.563805 
	C251.858932,124.998787 249.396179,126.041245 246.933426,127.083702 
z"/>
<path fill="#036C93" opacity="1.000000" stroke="none" 
	d="
M103.897514,40.940521 
	C105.601784,36.210411 107.306046,31.480299 109.391113,26.532658 
	C110.848351,26.542093 111.924789,26.769062 113.406845,26.997282 
	C115.544800,27.341478 117.277130,27.684425 118.858765,28.331448 
	C116.772644,32.822590 114.837212,37.009651 112.554337,41.341515 
	C111.468857,41.630566 110.730820,41.774822 109.598999,41.837814 
	C107.435974,41.484535 105.666748,41.212528 103.897514,40.940521 
z"/>
<path fill="#F59436" opacity="1.000000" stroke="none" 
	d="
M103.533562,40.962154 
	C105.666748,41.212528 107.435974,41.484535 109.556274,42.186340 
	C108.605301,44.744751 107.303261,46.873363 106.109352,49.222366 
	C106.418816,49.717487 106.682777,49.903225 107.004074,49.999977 
	C106.998779,49.999977 107.003029,49.989334 107.001587,50.423244 
	C106.970390,52.015598 106.940651,53.174042 106.702751,54.400593 
	C106.282166,54.669819 106.079773,54.880581 105.887421,55.100983 
	C99.352432,51.621456 92.817436,48.141930 86.534454,44.333076 
	C89.302948,44.546532 91.825645,45.062283 94.334480,45.638386 
	C98.169655,46.519062 100.800186,45.662342 100.996307,41.157951 
	C101.720741,41.099895 102.445175,41.041843 103.533562,40.962154 
z"/>
<path fill="#00A9BC" opacity="1.000000" stroke="none" 
	d="
M171.097687,9.068836 
	C167.727814,14.476161 164.357925,19.883482 160.581635,25.689980 
	C158.443329,28.073500 156.711411,30.057844 154.712769,31.860619 
	C153.288147,30.123856 152.130280,28.568659 151.275711,26.871124 
	C155.723343,22.490337 159.867676,18.251890 164.284073,13.824453 
	C166.736664,12.113256 168.917175,10.591044 171.097687,9.068836 
z"/>
<path fill="#F49539" opacity="1.000000" stroke="none" 
	d="
M139.013550,79.991333 
	C138.933258,80.446922 138.852951,80.902512 138.327118,81.699036 
	C134.426590,82.284912 134.076126,84.078659 135.079315,87.015205 
	C135.963226,89.602554 136.356796,92.357399 136.966904,95.038284 
	C134.676178,91.100555 132.385452,87.162827 130.061783,82.897934 
	C129.799225,81.907173 129.569626,81.243584 129.098572,80.003021 
	C128.531479,78.951035 128.205872,78.476021 127.803955,77.678085 
	C127.074608,75.953163 126.421547,74.551163 126.155853,73.107910 
	C128.026443,73.376579 129.509659,73.686485 131.165527,74.315826 
	C133.638977,74.727905 135.939789,74.820549 138.410675,74.973610 
	C138.580765,75.034019 138.889420,75.221230 138.872101,75.527786 
	C138.899353,76.242058 138.943924,76.649788 138.960022,77.306076 
	C138.964844,77.718079 138.998138,77.881516 138.963379,78.366776 
	C138.934738,79.122841 138.974152,79.557083 139.013550,79.991333 
z"/>
<path fill="#11A7CB" opacity="1.000000" stroke="none" 
	d="
M173.237793,82.159744 
	C170.822540,80.690063 168.609833,79.113350 166.192474,76.907898 
	C165.212387,74.905060 164.492493,73.495903 163.651611,72.163071 
	C160.450684,67.089394 157.210678,62.040352 154.108307,56.700691 
	C154.818619,55.610020 155.405899,54.800766 156.145477,54.299736 
	C157.902283,56.755981 159.506775,58.904007 161.111267,61.052029 
	C161.823532,62.607265 162.535797,64.162498 163.528641,65.900513 
	C167.174484,71.142960 170.539734,76.202621 173.896088,81.606949 
	C173.887192,81.951607 173.440338,82.052719 173.237793,82.159744 
z"/>
<path fill="#0A5E94" opacity="1.000000" stroke="none" 
	d="
M119.009453,28.027370 
	C117.277130,27.684425 115.544800,27.341478 113.441193,26.650604 
	C114.705147,23.586218 116.340385,20.869761 117.975632,18.153303 
	C120.037888,17.105103 122.100136,16.056900 124.518127,14.978811 
	C127.877899,14.924650 128.741623,16.327194 127.361725,18.940741 
	C126.384789,20.791073 125.177689,22.519876 123.786690,24.832642 
	C123.358513,25.938606 123.216972,26.514856 123.033966,27.060734 
	C122.992500,27.030361 123.079338,27.078009 122.722061,27.052052 
	C121.246346,27.359854 120.127899,27.693613 119.009453,28.027370 
z"/>
<path fill="#1672B7" opacity="1.000000" stroke="none" 
	d="
M49.002636,123.987099 
	C47.855145,124.966370 46.707657,125.945641 45.222366,126.937424 
	C46.999474,123.301010 43.231384,121.488060 42.220474,118.854340 
	C41.342587,116.567192 39.636307,114.598015 37.957825,111.955757 
	C42.868019,112.665031 47.912914,110.036705 50.667336,116.330704 
	C50.325523,119.245102 49.664078,121.616104 49.002636,123.987099 
z"/>
<path fill="#087BAA" opacity="1.000000" stroke="none" 
	d="
M126.990662,112.839401 
	C120.614792,112.879555 114.236946,113.007896 107.865204,112.864479 
	C106.913422,112.843048 105.990341,111.545723 105.433624,110.568893 
	C110.191559,111.060585 113.466721,109.663322 116.283508,105.234970 
	C113.185440,105.085732 111.053673,104.983047 108.921906,104.880356 
	C114.812523,104.651245 120.703148,104.422127 126.452316,104.579712 
	C125.550735,104.990463 124.790596,105.014503 123.653503,105.032990 
	C122.337669,106.606369 121.398804,108.185303 120.459930,109.764229 
	C121.736038,110.508438 122.978760,111.320312 124.300369,111.972305 
	C125.136284,112.384682 126.089859,112.558548 126.990662,112.839401 
z"/>
<path fill="#0B94A9" opacity="1.000000" stroke="none" 
	d="
M106.033386,55.419212 
	C106.079773,54.880581 106.282166,54.669819 106.945351,54.630447 
	C111.029488,56.796021 114.662880,58.799843 117.981750,60.967419 
	C114.910995,63.785641 112.243347,66.541229 109.368362,69.060188 
	C107.342720,70.834984 105.035469,72.288353 102.853951,73.885239 
	C104.264381,71.493019 105.674820,69.100800 107.051323,66.355522 
	C107.895828,64.839417 108.774261,63.676369 109.726639,62.415428 
	C108.552872,60.205738 107.366119,57.971592 106.033386,55.419212 
z"/>
<path fill="#0686AC" opacity="1.000000" stroke="none" 
	d="
M97.853271,119.899689 
	C97.440392,119.911819 97.027519,119.923950 96.306076,119.965240 
	C94.102409,120.488258 92.207306,120.982124 90.088867,121.768051 
	C84.011719,121.619133 78.157898,121.178139 72.484337,120.377426 
	C74.812775,118.331337 76.960960,116.644974 79.109146,114.958618 
	C83.274796,115.037720 87.440445,115.116814 91.377319,115.578415 
	C88.151924,116.124611 85.155304,116.288300 82.158684,116.451988 
	C82.220451,117.075615 82.282211,117.699242 82.343979,118.322868 
	C87.024445,119.666443 91.604332,119.410103 96.040710,116.870743 
	C96.722656,117.134705 97.404602,117.398666 98.073547,118.351822 
	C97.991455,119.327248 97.922363,119.613472 97.853271,119.899689 
z"/>
<path fill="#036C93" opacity="1.000000" stroke="none" 
	d="
M69.896637,119.036278 
	C65.467461,111.675613 69.740471,105.227669 79.546982,105.437706 
	C76.573341,110.246155 73.234985,114.641212 69.896637,119.036278 
z"/>
<path fill="#0282A5" opacity="1.000000" stroke="none" 
	d="
M32.825523,112.023407 
	C26.526022,112.335617 20.226521,112.647827 13.632589,112.604553 
	C14.881024,110.209831 16.423887,108.170593 18.413116,105.541374 
	C16.355289,105.263397 15.121634,105.096756 13.887980,104.930115 
	C20.153147,104.696526 26.418316,104.462936 32.479309,104.613052 
	C27.024948,104.086899 24.355192,107.035385 21.935926,112.023407 
	C26.034784,112.023407 29.430153,112.023407 32.825523,112.023407 
z"/>
<path fill="#016287" opacity="1.000000" stroke="none" 
	d="
M144.951813,110.906731 
	C144.835587,105.862076 149.013657,105.538460 152.882599,104.438522 
	C154.302887,104.779823 155.134689,104.910667 155.937653,105.393127 
	C152.950073,109.775528 152.440109,116.255356 144.951813,116.486610 
	C144.951813,114.457123 144.951813,112.681931 144.951813,110.906731 
z"/>
<path fill="#046891" opacity="1.000000" stroke="none" 
	d="
M245.620514,107.951691 
	C244.773621,111.186684 243.236862,113.783340 238.950363,113.789688 
	C238.325821,113.986969 238.153763,113.985275 237.958954,113.667137 
	C237.304367,112.562370 236.672501,111.774048 236.026733,110.591499 
	C235.309555,108.426605 234.606277,106.655937 233.903015,104.885269 
	C237.349548,104.484482 240.796082,104.083702 244.511108,103.651703 
	C244.822067,105.323563 245.045273,106.523552 245.620514,107.951691 
z"/>
<path fill="#187DC2" opacity="1.000000" stroke="none" 
	d="
M164.011993,14.013443 
	C159.867676,18.251890 155.723343,22.490337 150.980591,26.745220 
	C149.228958,25.846323 148.075775,24.930996 147.237061,23.871769 
	C148.694046,21.542507 149.836594,19.357145 150.979141,17.171783 
	C155.205811,18.528210 157.690643,15.772833 160.926514,13.107491 
	C162.393768,13.323336 163.202881,13.668390 164.011993,14.013443 
z"/>
<path fill="#03C1D4" opacity="1.000000" stroke="none" 
	d="
M165.836304,38.996372 
	C166.028412,39.616901 166.220505,40.237431 166.653687,41.383194 
	C166.610855,43.644451 166.326904,45.380474 166.042969,47.116493 
	C165.260513,50.657227 164.478058,54.197960 163.318634,57.549553 
	C161.960510,54.239372 160.979340,51.118320 160.003738,47.622444 
	C161.951645,44.497204 163.893982,41.746792 165.836304,38.996372 
z"/>
<path fill="#029EB7" opacity="1.000000" stroke="none" 
	d="
M62.997795,105.158836 
	C64.461494,105.158836 65.925186,105.158836 67.997131,105.158836 
	C65.128181,109.868301 62.431698,114.294647 59.089546,118.997528 
	C57.294773,119.514908 56.145668,119.755768 54.998470,119.594292 
	C56.194832,116.434341 57.192478,113.567268 58.645996,110.953728 
	C59.809162,108.862244 61.526443,107.078926 62.997795,105.158836 
z"/>
<path fill="#087BAA" opacity="1.000000" stroke="none" 
	d="
M31.877758,117.549141 
	C29.531111,119.157387 27.024673,120.444084 24.191994,121.882996 
	C18.008841,121.601151 12.151928,121.167091 6.502088,120.374641 
	C8.800436,119.679657 10.891712,119.343056 13.415842,119.005440 
	C18.225676,118.059769 22.602655,117.115105 26.979637,116.170441 
	C28.559080,116.522827 30.138523,116.875214 31.877758,117.549141 
z"/>
<path fill="#055A89" opacity="1.000000" stroke="none" 
	d="
M117.611206,18.083080 
	C116.340385,20.869761 114.705147,23.586218 113.035561,26.649353 
	C111.924789,26.769062 110.848351,26.542093 109.471832,26.162769 
	C108.109749,24.256104 107.047745,22.501789 106.288422,20.353563 
	C108.074516,18.267620 109.557930,16.575586 111.041344,14.883556 
	C113.109825,15.926657 115.178307,16.969755 117.611206,18.083080 
z"/>
<path fill="#007E9C" opacity="1.000000" stroke="none" 
	d="
M70.017380,119.321686 
	C73.234985,114.641212 76.573341,110.246155 79.952194,105.506859 
	C81.385574,105.117149 82.778458,105.071678 84.581863,105.448547 
	C83.992676,108.193405 82.992966,110.515930 81.993256,112.838455 
	C80.946632,113.331879 79.900002,113.825294 78.981255,114.638664 
	C76.960960,116.644974 74.812775,118.331337 72.280197,120.030624 
	C71.309906,119.898064 70.724022,119.752586 70.017380,119.321686 
z"/>
<path fill="#047399" opacity="1.000000" stroke="none" 
	d="
M144.603958,111.136475 
	C144.951813,112.681931 144.951813,114.457123 144.951813,116.486610 
	C152.440109,116.255356 152.950073,109.775528 156.326431,105.379082 
	C160.018127,104.814186 160.655548,106.362190 158.990936,108.849228 
	C157.928589,110.436440 156.364517,111.687836 154.879700,113.409790 
	C154.435471,114.816200 154.136917,115.902603 153.471115,117.044662 
	C150.127029,117.726135 147.150177,118.351959 144.173340,118.977783 
	C144.200928,116.440590 144.228516,113.903412 144.603958,111.136475 
z"/>
<path fill="#1572B5" opacity="1.000000" stroke="none" 
	d="
M150.652512,17.009632 
	C149.836594,19.357145 148.694046,21.542507 146.891541,23.834354 
	C144.493866,23.281855 142.756149,22.622868 141.017822,21.589729 
	C141.673996,18.867107 142.330795,16.518637 142.987610,14.170168 
	C145.433701,15.062607 147.879791,15.955045 150.652512,17.009632 
z"/>
<path fill="#00B4C5" opacity="1.000000" stroke="none" 
	d="
M92.007545,105.158653 
	C93.156059,105.099564 94.374290,105.265770 95.439133,104.936272 
	C97.953934,104.158142 99.793427,104.817490 99.879059,107.477036 
	C99.963150,110.089279 99.379669,112.829620 95.813164,112.973427 
	C93.839951,113.052979 91.860771,112.984627 89.486053,112.565933 
	C90.061058,109.818840 91.034302,107.488747 92.007545,105.158653 
z"/>
<path fill="#0782AD" opacity="1.000000" stroke="none" 
	d="
M206.989929,104.169441 
	C210.552078,104.184059 214.114227,104.198677 217.474915,104.600708 
	C215.857941,105.006538 214.442413,105.024956 212.654999,105.036110 
	C210.134811,106.869644 207.986542,108.710457 205.838272,110.551262 
	C206.104202,111.029343 206.370132,111.507423 206.636063,111.985504 
	C211.371964,111.985504 216.107864,111.985504 220.843765,111.985504 
	C220.553421,112.302864 220.264389,112.896301 219.972580,112.897667 
	C209.796066,112.945526 199.619293,112.937607 189.232132,112.937607 
	C189.232132,110.523712 189.232132,108.443268 189.596649,106.565353 
	C190.401901,108.816788 188.571442,112.192787 193.351120,111.952789 
	C194.479126,111.972710 195.231171,111.965874 196.382416,111.970840 
	C197.845016,111.982147 198.908463,111.981674 200.319916,111.953827 
	C202.775253,109.340775 204.882599,106.755112 206.989929,104.169441 
z"/>
<path fill="#02A5BD" opacity="1.000000" stroke="none" 
	d="
M124.030457,105.038551 
	C124.790596,105.014503 125.550735,104.990463 126.689545,104.944748 
	C131.727707,103.586121 133.986557,108.183533 137.772858,109.924713 
	C134.907242,111.072029 131.955292,111.513115 128.946533,111.609863 
	C127.269966,109.189857 125.650215,107.114204 124.030457,105.038551 
z"/>
<path fill="#01BBCB" opacity="1.000000" stroke="none" 
	d="
M165.903198,38.618103 
	C163.893982,41.746792 161.951645,44.497204 159.750183,47.519783 
	C159.014145,47.525135 158.537216,47.258320 158.042816,46.549591 
	C158.010361,43.753677 157.995377,41.399677 158.020294,38.694862 
	C159.984909,36.228962 161.909622,34.113880 163.834320,31.998795 
	C164.546249,34.079140 165.258163,36.159485 165.903198,38.618103 
z"/>
<path fill="#00A9BC" opacity="1.000000" stroke="none" 
	d="
M32.995625,111.671761 
	C29.430153,112.023407 26.034784,112.023407 21.935926,112.023407 
	C24.355192,107.035385 27.024948,104.086899 32.710964,104.990494 
	C33.153107,107.096199 33.159416,109.208160 32.995625,111.671761 
z"/>
<path fill="#016A8D" opacity="1.000000" stroke="none" 
	d="
M13.498425,104.958878 
	C15.121634,105.096756 16.355289,105.263397 18.413116,105.541374 
	C16.423887,108.170593 14.881024,110.209831 13.169374,112.531624 
	C12.685106,113.027084 12.369624,113.240005 11.607723,113.768913 
	C9.073318,115.740326 6.985332,117.395744 4.897348,119.051163 
	C4.270652,118.257576 3.643953,117.463989 3.304994,116.313354 
	C6.034091,113.821518 8.683050,111.866043 10.782273,109.435722 
	C11.364052,108.762177 10.313139,106.678383 10.011306,105.241608 
	C11.043828,105.156952 12.076350,105.072296 13.498425,104.958878 
z"/>
<path fill="#00B4C5" opacity="1.000000" stroke="none" 
	d="
M163.899445,31.648176 
	C161.909622,34.113880 159.984909,36.228962 157.675476,38.663662 
	C156.830856,38.938694 156.370987,38.894108 155.882141,38.547279 
	C155.869354,37.840752 155.885559,37.436455 155.943512,36.663811 
	C155.650024,34.877697 155.314758,33.459938 154.979492,32.042183 
	C156.711411,30.057844 158.443329,28.073500 160.506226,26.046047 
	C161.879654,27.767813 162.922104,29.532684 163.899445,31.648176 
z"/>
<path fill="#106AA6" opacity="1.000000" stroke="none" 
	d="
M142.653946,14.003159 
	C142.330795,16.518637 141.673996,18.867107 140.578613,21.601330 
	C138.095612,21.984388 136.051224,21.981693 134.006821,21.979000 
	C135.010742,18.552830 136.014648,15.126657 137.032242,11.288765 
	C138.804047,11.863415 140.562164,12.849783 142.653946,14.003159 
z"/>
<path fill="#187DC2" opacity="1.000000" stroke="none" 
	d="
M153.010437,125.003754 
	C151.829636,127.226799 150.648834,129.449829 149.183334,131.860474 
	C144.716690,130.792938 144.515381,127.199173 144.518433,123.381927 
	C147.671432,123.664223 150.340927,124.333992 153.010437,125.003754 
z"/>
<path fill="#025C83" opacity="1.000000" stroke="none" 
	d="
M9.661257,105.273407 
	C10.313139,106.678383 11.364052,108.762177 10.782273,109.435722 
	C8.683050,111.866043 6.034091,113.821518 3.240415,115.997040 
	C1.451930,111.566322 3.381253,108.342567 9.661257,105.273407 
z"/>
<path fill="#00B4C5" opacity="1.000000" stroke="none" 
	d="
M172.996384,105.163506 
	C175.907242,106.179535 178.818085,107.195564 181.857788,108.956322 
	C180.974991,110.467400 180.038010,111.730507 178.936066,111.896164 
	C176.677811,112.235626 174.331070,111.986351 172.013184,111.589836 
	C172.335876,109.187973 172.666138,107.175735 172.996384,105.163506 
z"/>
<path fill="#028EAC" opacity="1.000000" stroke="none" 
	d="
M62.653206,105.085236 
	C61.526443,107.078926 59.809162,108.862244 58.645996,110.953728 
	C57.192478,113.567268 56.194832,116.434341 54.696911,119.449226 
	C53.583279,118.437225 52.773113,117.167961 51.962948,115.898697 
	C53.852745,112.568970 55.517548,109.074112 57.767368,106.008614 
	C58.455814,105.070580 60.749851,105.310921 62.653206,105.085236 
z"/>
<path fill="#03507C" opacity="1.000000" stroke="none" 
	d="
M110.895538,14.579422 
	C109.557930,16.575586 108.074516,18.267620 106.236435,20.001305 
	C104.249649,17.944805 102.617523,15.846651 101.273819,13.235687 
	C102.619553,11.999590 103.676865,11.276302 104.734184,10.553015 
	C106.739372,11.793774 108.744553,13.034533 110.895538,14.579422 
z"/>
<path fill="#12649E" opacity="1.000000" stroke="none" 
	d="
M237.981689,113.983582 
	C238.153763,113.985275 238.325821,113.986969 238.756165,113.985786 
	C239.014420,113.982910 239.016373,114.415787 239.017731,114.632233 
	C237.936096,116.490326 236.853104,118.131989 235.457565,119.904953 
	C232.017700,121.936790 228.901489,123.855972 225.757843,125.729080 
	C224.420074,126.526169 223.024841,127.226845 221.283325,127.957687 
	C221.695190,126.373962 222.479446,124.803879 223.948013,123.104576 
	C226.115677,122.122360 227.665466,121.365601 229.068634,120.396515 
	C232.079758,118.316940 235.015244,116.127838 237.981689,113.983582 
z"/>
<path fill="#F37A36" opacity="1.000000" stroke="none" 
	d="
M100.549377,41.095116 
	C100.800186,45.662342 98.169655,46.519062 94.334480,45.638386 
	C91.825645,45.062283 89.302948,44.546532 86.370956,44.019749 
	C85.955452,44.035748 85.991997,44.012417 85.825783,43.764694 
	C85.068665,43.357922 84.477768,43.198875 83.886864,43.039829 
	C83.439919,42.926395 82.992981,42.812962 81.237053,42.367306 
	C88.381676,41.861713 94.242065,41.446999 100.549377,41.095116 
z"/>
<path fill="#0298B3" opacity="1.000000" stroke="none" 
	d="
M91.572327,105.091782 
	C91.034302,107.488747 90.061058,109.818840 89.043793,112.493645 
	C86.952690,112.888451 84.905594,112.938553 82.425880,112.913551 
	C82.992966,110.515930 83.992676,108.193405 84.995773,105.514771 
	C87.045151,105.114075 89.091125,105.069489 91.572327,105.091782 
z"/>
<path fill="#08B1D1" opacity="1.000000" stroke="none" 
	d="
M158.060272,46.991508 
	C158.537216,47.258320 159.014145,47.525135 159.744629,47.894608 
	C160.979340,51.118320 161.960510,54.239372 162.990875,57.735847 
	C162.591415,59.007389 162.142746,59.903503 161.402664,60.925823 
	C159.506775,58.904007 157.902283,56.755981 156.187622,53.936264 
	C156.738388,51.173550 157.399338,49.082527 158.060272,46.991508 
z"/>
<path fill="#0298B3" opacity="1.000000" stroke="none" 
	d="
M220.908142,111.656525 
	C216.107864,111.985504 211.371964,111.985504 206.636063,111.985504 
	C206.370132,111.507423 206.104202,111.029343 205.838272,110.551262 
	C207.986542,108.710457 210.134811,106.869644 212.647552,105.428436 
	C213.384262,111.404892 217.695633,109.600197 220.830429,110.000298 
	C220.877792,110.442711 220.925156,110.885132 220.908142,111.656525 
z"/>
<path fill="#107EB5" opacity="1.000000" stroke="none" 
	d="
M200.170425,122.008972 
	C200.170425,119.898666 200.170425,117.788376 200.170425,114.788818 
	C203.436035,116.446815 208.109695,111.757965 209.709229,118.562538 
	C209.417770,118.970108 208.981613,118.978561 208.609283,118.986618 
	C205.548126,119.999443 202.859268,121.004204 200.170425,122.008972 
z"/>
<path fill="#107EB5" opacity="1.000000" stroke="none" 
	d="
M153.358612,125.000107 
	C150.340927,124.333992 147.671432,123.664223 144.590546,122.991852 
	C144.126465,121.916718 144.073792,120.844193 144.097229,119.374725 
	C147.150177,118.351959 150.127029,117.726135 153.546585,117.461548 
	C154.359314,120.201866 154.729340,122.580963 155.099365,124.960068 
	C154.635162,124.972198 154.170975,124.984329 153.358612,125.000107 
z"/>
<path fill="#136BAD" opacity="1.000000" stroke="none" 
	d="
M237.958954,113.667137 
	C235.015244,116.127838 232.079758,118.316940 229.068634,120.396515 
	C227.665466,121.365601 226.115677,122.122360 224.259125,122.966690 
	C224.673416,121.060928 225.460907,119.163826 226.917786,117.093124 
	C230.405014,114.941597 233.222824,112.963661 236.040649,110.985725 
	C236.672501,111.774048 237.304367,112.562370 237.958954,113.667137 
z"/>
<path fill="#106AA6" opacity="1.000000" stroke="none" 
	d="
M118.948929,124.095261 
	C117.341644,123.529015 115.734360,122.962761 113.307327,122.107712 
	C117.117012,119.250343 117.575134,113.716202 123.566452,115.437050 
	C123.273720,117.563431 122.631805,119.269394 121.685165,121.114151 
	C120.569923,122.200386 119.759422,123.147820 118.948929,124.095261 
z"/>
<path fill="#0282A5" opacity="1.000000" stroke="none" 
	d="
M155.025391,113.089798 
	C156.364517,111.687836 157.928589,110.436440 158.990936,108.849228 
	C160.655548,106.362190 160.018127,104.814186 156.355286,105.027466 
	C155.134689,104.910667 154.302887,104.779823 153.253799,104.416771 
	C156.745300,104.455490 160.454071,104.726418 164.539047,105.416847 
	C163.609497,108.161346 162.303741,110.486351 160.575760,112.880920 
	C158.444168,112.996933 156.734772,113.043365 155.025391,113.089798 
z"/>
<path fill="#0A5085" opacity="1.000000" stroke="none" 
	d="
M119.021309,124.332596 
	C119.759422,123.147820 120.569923,122.200386 122.029198,121.072746 
	C125.838158,118.785622 127.986618,112.963326 133.106430,118.052803 
	C130.499557,119.455688 127.892677,120.858574 124.905075,122.623123 
	C124.342354,123.000786 124.160362,123.016769 123.625687,123.021484 
	C122.155090,123.696442 121.037170,124.382652 119.919258,125.068871 
	C119.564102,125.034889 119.288918,124.868576 119.021309,124.332596 
z"/>
<path fill="#1979C0" opacity="1.000000" stroke="none" 
	d="
M236.026733,110.591499 
	C233.222824,112.963661 230.405014,114.941597 227.226624,116.932251 
	C229.007004,113.038795 231.147964,109.132614 233.595963,105.055862 
	C234.606277,106.655937 235.309555,108.426605 236.026733,110.591499 
z"/>
<path fill="#076393" opacity="1.000000" stroke="none" 
	d="
M133.435547,117.908203 
	C127.986618,112.963326 125.838158,118.785622 122.333939,120.933945 
	C122.631805,119.269394 123.273720,117.563431 123.966537,115.513359 
	C125.334953,114.717110 126.652451,114.264977 128.207138,113.417252 
	C128.630600,113.017181 128.816849,113.012711 129.283157,113.300201 
	C132.662796,113.723289 135.762390,113.854408 138.861984,113.985519 
	C137.162872,115.244881 135.463760,116.504242 133.435547,117.908203 
z"/>
<path fill="#055A89" opacity="1.000000" stroke="none" 
	d="
M108.566605,104.939453 
	C111.053673,104.983047 113.185440,105.085732 116.283508,105.234970 
	C113.466721,109.663322 110.191559,111.060585 105.501816,110.136551 
	C106.197350,108.315498 107.204323,106.657028 108.566605,104.939453 
z"/>
<path fill="#0D5A95" opacity="1.000000" stroke="none" 
	d="
M208.981613,118.978561 
	C208.981613,118.978561 209.417770,118.970108 209.635849,118.972610 
	C209.901138,120.701447 209.948349,122.427780 209.921432,124.578522 
	C207.067001,127.255722 204.286682,129.508530 201.197174,131.902466 
	C200.601471,130.943207 200.314987,129.842850 200.430801,128.330338 
	C203.549271,124.938309 206.265442,121.958427 208.981613,118.978561 
z"/>
<path fill="#F37A36" opacity="1.000000" stroke="none" 
	d="
M136.978546,95.023277 
	C136.356796,92.357399 135.963226,89.602554 135.079315,87.015205 
	C134.076126,84.078659 134.426590,82.284912 138.222656,82.030014 
	C138.644699,82.187279 138.725708,82.354485 138.949890,82.760727 
	C139.038239,87.656609 138.985779,92.313492 138.914124,96.970085 
	C138.912430,97.080139 138.630798,97.299606 138.589615,97.276031 
	C138.388870,97.161163 138.225525,96.980927 137.920227,96.224136 
	C137.513916,95.423149 137.236343,95.221840 136.958755,95.020538 
	C136.958755,95.020538 136.990173,95.008270 136.978546,95.023277 
z"/>
<path fill="#00CFDA" opacity="1.000000" stroke="none" 
	d="
M166.441315,47.054207 
	C166.326904,45.380474 166.610855,43.644451 166.946777,41.535004 
	C170.618073,41.868164 174.237381,42.574753 177.856674,43.281342 
	C177.899323,43.616165 177.941971,43.950993 177.984619,44.285816 
	C174.269653,45.187851 170.554672,46.089890 166.441315,47.054207 
z"/>
<path fill="#0782AD" opacity="1.000000" stroke="none" 
	d="
M51.725388,115.955002 
	C52.773113,117.167961 53.583279,118.437225 54.695004,119.851555 
	C56.145668,119.755768 57.294773,119.514908 58.780220,119.152481 
	C58.326405,120.601562 57.536251,122.172211 56.442047,123.892807 
	C54.056141,124.026146 51.974281,124.009537 49.447529,123.990021 
	C49.664078,121.616104 50.325523,119.245102 51.000664,116.502365 
	C51.014355,116.130630 51.487831,116.011314 51.725388,115.955002 
z"/>
<path fill="#047399" opacity="1.000000" stroke="none" 
	d="
M181.357101,119.039787 
	C178.976562,119.670006 176.920975,120.279648 174.437317,120.527573 
	C174.061203,118.771614 174.113144,117.377373 174.582687,115.988724 
	C177.956787,115.681068 181.584290,117.137665 183.066727,112.936211 
	C183.378189,114.365883 183.689667,115.795555 183.730133,117.722229 
	C183.214783,118.417213 183.056595,118.669266 182.984543,118.975388 
	C182.550385,118.989990 182.116211,119.004593 181.357101,119.039787 
z"/>
<path fill="#029EB7" opacity="1.000000" stroke="none" 
	d="
M183.035309,112.559937 
	C181.584290,117.137665 177.956787,115.681068 174.502228,115.661621 
	C173.339493,114.497108 172.674805,113.665306 172.007706,112.626099 
	C172.005295,112.418701 171.996338,112.003967 172.001038,111.999069 
	C172.005753,111.994171 172.020752,111.979477 172.020752,111.979477 
	C174.331070,111.986351 176.677811,112.235626 178.936066,111.896164 
	C180.038010,111.730507 180.974991,110.467400 182.010010,109.280487 
	C182.356888,109.967842 182.680389,111.075752 183.035309,112.559937 
z"/>
<path fill="#029EB7" opacity="1.000000" stroke="none" 
	d="
M172.583557,105.095169 
	C172.666138,107.175735 172.335876,109.187973 172.013184,111.589844 
	C172.020752,111.979477 172.005753,111.994171 171.584839,111.997772 
	C169.581924,112.001366 167.999939,112.001366 165.740128,112.001366 
	C166.691635,109.118515 167.345474,107.137505 167.999313,105.156494 
	C169.389786,105.113274 170.780273,105.070053 172.583557,105.095169 
z"/>
<path fill="#02A5BD" opacity="1.000000" stroke="none" 
	d="
M95.865707,116.551224 
	C91.604332,119.410103 87.024445,119.666443 82.343979,118.322868 
	C82.282211,117.699242 82.220451,117.075615 82.158684,116.451988 
	C85.155304,116.288300 88.151924,116.124611 91.605957,115.943939 
	C93.272476,116.028534 94.481598,116.130119 95.865707,116.551224 
z"/>
<path fill="#0492B1" opacity="1.000000" stroke="none" 
	d="
M129.003113,113.008232 
	C128.816849,113.012711 128.630600,113.017181 128.164948,113.028618 
	C127.885574,113.035576 127.426460,112.989418 127.208557,112.914413 
	C126.089859,112.558548 125.136284,112.384682 124.300369,111.972305 
	C122.978760,111.320312 121.736038,110.508438 120.459930,109.764229 
	C121.398804,108.185303 122.337669,106.606369 123.653496,105.032990 
	C125.650215,107.114204 127.269966,109.189857 128.944946,111.873642 
	C129.001160,112.657249 129.002136,112.832741 129.003113,113.008232 
z"/>
<path fill="#1266A6" opacity="1.000000" stroke="none" 
	d="
M208.609283,118.986618 
	C206.265442,121.958427 203.549271,124.938309 200.499420,127.963692 
	C200.120743,126.292152 200.075760,124.575096 200.100616,122.433510 
	C202.859268,121.004204 205.548126,119.999443 208.609283,118.986618 
z"/>
<path fill="#087BAA" opacity="1.000000" stroke="none" 
	d="
M206.531128,104.093628 
	C204.882599,106.755112 202.775253,109.340775 200.369873,111.600075 
	C201.102814,109.557678 202.133804,107.841660 203.541794,105.498177 
	C201.447952,105.289436 200.213440,105.166367 198.604492,105.030609 
	C197.479736,105.026688 196.729431,105.035439 195.570663,105.031296 
	C194.075272,104.978241 192.988342,104.938072 191.901398,104.897911 
	C196.625031,104.604538 201.348679,104.311172 206.531128,104.093628 
z"/>
<path fill="#02A5BD" opacity="1.000000" stroke="none" 
	d="
M220.895691,109.633759 
	C217.695633,109.600197 213.384262,111.404892 213.019470,105.435707 
	C214.442413,105.024956 215.857941,105.006538 217.698669,104.972481 
	C219.069565,106.393639 220.015274,107.830429 220.895691,109.633759 
z"/>
<path fill="#043F71" opacity="1.000000" stroke="none" 
	d="
M104.478165,10.309193 
	C103.676865,11.276302 102.619553,11.999590 101.225227,12.885633 
	C98.785606,10.366816 96.682999,7.685244 94.580391,5.003672 
	C94.885498,4.695785 95.190605,4.387898 95.495712,4.080011 
	C98.404518,6.075131 101.313332,8.070251 104.478165,10.309193 
z"/>
<path fill="#0492B1" opacity="1.000000" stroke="none" 
	d="
M167.626358,105.087021 
	C167.345474,107.137505 166.691635,109.118515 165.740128,112.001366 
	C167.999939,112.001366 169.581924,112.001366 171.580124,112.002670 
	C171.996338,112.003967 172.005295,112.418701 171.552826,112.697296 
	C167.732895,112.921043 164.365448,112.866203 160.997986,112.811356 
	C162.303741,110.486351 163.609497,108.161346 164.953659,105.497871 
	C165.745850,105.112114 166.499619,105.064827 167.626358,105.087021 
z"/>
<path fill="#0298B3" opacity="1.000000" stroke="none" 
	d="
M26.762938,116.094742 
	C22.602655,117.115105 18.225676,118.059769 13.424175,118.631577 
	C13.003304,117.511276 13.006953,116.763817 13.473612,116.013000 
	C17.988539,115.989754 22.040457,115.969879 26.092375,115.949997 
	C26.092375,115.949997 26.546240,116.019035 26.762938,116.094742 
z"/>
<path fill="#03507C" opacity="1.000000" stroke="none" 
	d="
M191.609070,104.954956 
	C192.988342,104.938072 194.075272,104.978241 195.540161,105.375374 
	C194.937149,107.796913 193.956161,109.861481 192.975174,111.926041 
	C188.571442,112.192787 190.401901,108.816788 189.956390,106.344185 
	C190.406631,105.617661 190.861694,105.314827 191.609070,104.954956 
z"/>
<path fill="#06487C" opacity="1.000000" stroke="none" 
	d="
M247.055084,127.373161 
	C249.396179,126.041245 251.858932,124.998787 254.702606,123.928726 
	C255.392990,124.378807 255.702438,124.856499 256.064911,125.640633 
	C253.945129,127.283951 251.772324,128.620819 249.245056,129.996307 
	C248.319305,129.244156 247.748016,128.453384 247.055084,127.373161 
z"/>
<path fill="#007E9C" opacity="1.000000" stroke="none" 
	d="
M13.010603,116.016365 
	C13.006953,116.763817 13.003304,117.511276 12.991322,118.632591 
	C10.891712,119.343056 8.800436,119.679657 6.299255,120.025742 
	C5.529692,120.000702 5.256608,119.828712 4.983723,119.285217 
	C6.985332,117.395744 9.073318,115.740326 11.497576,114.038071 
	C12.042797,114.308632 12.251750,114.626038 12.729208,115.270691 
	C12.997714,115.597946 13.010603,116.016365 13.010603,116.016365 
z"/>
<path fill="#1697CA" opacity="1.000000" stroke="none" 
	d="
M164.284073,13.824455 
	C163.202881,13.668390 162.393768,13.323336 161.233322,12.962241 
	C161.666687,12.296028 162.451385,11.645855 163.801926,10.870247 
	C164.558426,10.457401 164.749084,10.169991 164.939758,9.882582 
	C166.712921,8.588720 168.486099,7.294859 170.626221,6.361485 
	C171.012344,7.510508 171.031479,8.299046 171.050629,9.087584 
	C171.050629,9.087584 171.057617,9.038566 171.077652,9.053699 
	C168.917175,10.591044 166.736664,12.113256 164.284073,13.824455 
z"/>
<path fill="#087BAA" opacity="1.000000" stroke="none" 
	d="
M129.283157,113.300201 
	C129.002136,112.832741 129.001160,112.657249 129.001770,112.217979 
	C131.955292,111.513115 134.907242,111.072029 137.947021,110.232498 
	C138.358231,110.966278 138.681610,112.098495 138.933502,113.608116 
	C135.762390,113.854408 132.662796,113.723289 129.283157,113.300201 
z"/>
<path fill="#136BAD" opacity="1.000000" stroke="none" 
	d="
M123.978378,123.032745 
	C124.160362,123.016769 124.342354,123.000786 124.797745,122.969711 
	C125.433884,122.963608 125.712563,123.121223 125.972137,123.667336 
	C124.896149,126.245224 123.755203,128.583252 122.258911,130.979401 
	C121.547409,131.026093 121.274231,130.869720 121.152557,130.014191 
	C122.140182,127.317596 123.059280,125.175171 123.978378,123.032745 
z"/>
<path fill="#187DC2" opacity="1.000000" stroke="none" 
	d="
M123.625687,123.021484 
	C123.059280,125.175171 122.140182,127.317596 121.077293,129.781952 
	C119.482590,128.902832 116.830132,128.007339 119.863937,125.374443 
	C121.037170,124.382652 122.155090,123.696442 123.625687,123.021484 
z"/>
<path fill="#087BAA" opacity="1.000000" stroke="none" 
	d="
M13.473612,116.013000 
	C13.010603,116.016365 12.997714,115.597946 12.993850,115.388672 
	C17.202417,115.192657 21.414850,115.205925 25.859829,115.584595 
	C22.040457,115.969879 17.988539,115.989754 13.473612,116.013000 
z"/>
<path fill="#00A9BC" opacity="1.000000" stroke="none" 
	d="
M171.353821,8.960049 
	C171.031479,8.299046 171.012344,7.510508 170.971924,6.328135 
	C170.950638,5.934300 170.969208,5.977693 171.312943,5.987497 
	C172.139999,6.010083 172.623337,6.022863 173.106659,6.035645 
	C172.623444,6.967936 172.140228,7.900226 171.353821,8.960049 
z"/>
<path fill="#1697CA" opacity="1.000000" stroke="none" 
	d="
M173.368286,5.887326 
	C172.623337,6.022863 172.139999,6.010083 171.294373,5.977701 
	C171.831360,5.885069 172.730621,5.812038 173.368286,5.887326 
z"/>
<path fill="#074B81" opacity="1.000000" stroke="none" 
	d="
M98.183609,119.936874 
	C97.922363,119.613472 97.991455,119.327248 98.191101,118.615692 
	C98.825340,118.580376 99.329025,118.970398 99.835861,119.685562 
	C99.397331,119.998489 98.955643,119.986275 98.183609,119.936874 
z"/>
<path fill="#F59436" opacity="1.000000" stroke="none" 
	d="
M84.036224,43.317612 
	C84.477768,43.198875 85.068665,43.357922 85.822617,43.785503 
	C85.385643,43.901157 84.785622,43.748276 84.036224,43.317612 
z"/>
<path fill="#F2F5F6" opacity="1.000000" stroke="none" 
	d="
M101.156860,82.251266 
	C101.550575,82.171059 102.110672,82.339935 102.838455,82.756775 
	C102.445175,82.836601 101.884201,82.668472 101.156860,82.251266 
z"/>
<path fill="#F49539" opacity="1.000000" stroke="none" 
	d="
M137.034775,95.273392 
	C137.236343,95.221840 137.513916,95.423149 137.874710,95.874435 
	C137.675537,95.925018 137.393173,95.725632 137.034775,95.273392 
z"/>
<path fill="#187DC2" opacity="1.000000" stroke="none" 
	d="
M164.695282,9.984431 
	C164.749084,10.169991 164.558426,10.457401 164.126251,10.850801 
	C164.073425,10.666620 164.262115,10.376451 164.695282,9.984431 
z"/>
<path fill="#074B81" opacity="1.000000" stroke="none" 
	d="
M183.194885,118.991074 
	C183.056595,118.669266 183.214783,118.417213 183.658478,118.110886 
	C183.895279,118.173981 183.932693,118.345413 183.898407,118.770226 
	C183.826706,119.023613 183.405212,119.006775 183.194885,118.991074 
z"/>
<path fill="#12649E" opacity="1.000000" stroke="none" 
	d="
M220.696960,127.989426 
	C220.920975,128.232758 220.788147,128.506454 220.358582,128.859650 
	C220.258881,128.683304 220.351639,128.376862 220.696960,127.989426 
z"/>
<path fill="#BABCBD" opacity="1.000000" stroke="none" 
	d="
M125.027222,26.117161 
	C126.508713,25.515406 127.990211,24.913654 130.000198,24.150066 
	C130.689957,24.043184 130.851212,24.098135 130.966461,24.490692 
	C127.905983,28.424236 124.852730,31.988663 121.894043,35.629921 
	C120.495995,37.350494 119.279099,39.218254 117.609055,41.072395 
	C116.488701,41.137455 115.739418,41.149445 115.026436,40.778320 
	C117.734932,35.956139 120.407135,31.517076 123.079338,27.078011 
	C123.079338,27.078009 122.992500,27.030361 123.323654,27.033712 
	C124.112289,26.730431 124.569756,26.423798 125.027222,26.117161 
z"/>
<path fill="#0D568B" opacity="1.000000" stroke="none" 
	d="
M131.012482,24.153086 
	C130.851212,24.098135 130.689957,24.043184 130.277161,23.943953 
	C131.105286,23.265528 132.184921,22.631382 133.635696,21.988117 
	C136.051224,21.981693 138.095612,21.984388 140.579224,21.975481 
	C142.756149,22.622868 144.493866,23.281855 146.577087,23.978256 
	C148.075775,24.930996 149.228958,25.846323 150.677277,26.887558 
	C152.130280,28.568659 153.288147,30.123856 154.712769,31.860619 
	C155.314758,33.459938 155.650024,34.877697 155.721939,36.636757 
	C155.458603,36.978058 155.010788,36.981037 154.873169,36.720200 
	C154.409668,35.971294 154.083786,35.483227 153.730972,34.680088 
	C152.812958,33.217922 151.921875,32.070831 150.918365,30.614632 
	C149.213470,29.170782 147.621002,28.036041 145.892639,26.634151 
	C145.190521,26.189501 144.624268,26.011997 143.862335,25.558193 
	C142.781326,25.251270 141.895996,25.220650 140.805206,25.103760 
	C140.324539,24.900663 140.071167,24.747719 139.498322,24.314705 
	C137.771530,24.046543 136.386032,24.022331 134.605774,23.919832 
	C133.144836,23.945391 132.078659,24.049238 131.012482,24.153086 
z"/>
<path fill="#2679A7" opacity="1.000000" stroke="none" 
	d="
M124.921425,25.879263 
	C124.569756,26.423798 124.112289,26.730431 123.365128,27.064085 
	C123.216972,26.514856 123.358513,25.938606 123.750633,25.189619 
	C124.272690,25.225042 124.544159,25.433201 124.921425,25.879263 
z"/>
<path fill="#FFFFFF" opacity="1.000000" stroke="none" 
	d="
M160.575775,112.880928 
	C164.365448,112.866203 167.732895,112.921043 171.555237,112.904694 
	C172.674805,113.665306 173.339493,114.497108 174.084641,115.656021 
	C174.113144,117.377373 174.061203,118.771614 174.083954,120.576355 
	C173.549332,124.697693 170.933273,125.263542 167.414612,125.106491 
	C165.946640,125.126785 164.875549,125.077446 163.406921,125.097183 
	C161.619095,125.121574 160.228806,125.076889 158.425964,125.101372 
	C157.286026,125.111900 156.558640,125.053268 155.465302,124.977341 
	C154.729340,122.580963 154.359314,120.201866 153.913834,117.405884 
	C154.136917,115.902603 154.435471,114.816200 154.879700,113.409798 
	C156.734772,113.043365 158.444168,112.996933 160.575775,112.880928 
z"/>
<path fill="#0C4B7C" opacity="1.000000" stroke="none" 
	d="
M102.868370,73.898399 
	C105.035469,72.288353 107.342720,70.834984 109.368362,69.060188 
	C112.243347,66.541229 114.910995,63.785641 118.249283,61.180233 
	C120.616066,64.813782 122.400795,68.398270 124.035873,72.238358 
	C122.983475,72.265617 122.080734,72.037262 120.970444,71.543625 
	C119.396965,70.525757 118.031029,69.773163 116.569473,68.967880 
	C113.914871,71.056404 111.447289,72.997787 108.666092,75.033066 
	C107.167091,76.057503 105.981697,76.988060 104.796310,77.918610 
	C103.263535,78.176079 101.730751,78.433540 100.371231,78.211243 
	C100.650070,77.423943 100.755653,77.116409 100.861237,76.808876 
	C100.861237,76.808876 100.888016,76.907928 101.134979,76.831985 
	C101.450165,76.393021 101.518372,76.029999 101.586586,75.666985 
	C101.586586,75.666985 101.713654,75.580009 101.991287,75.638138 
	C102.486473,75.100601 102.704025,74.504929 102.921577,73.909264 
	C102.921577,73.909264 102.882790,73.911560 102.868370,73.898399 
z"/>
<path fill="#DADCDE" opacity="1.000000" stroke="none" 
	d="
M108.979698,74.939178 
	C111.447289,72.997787 113.914871,71.056404 116.569473,68.967880 
	C118.031029,69.773163 119.396965,70.525757 120.807297,71.862938 
	C118.957397,74.619858 118.253914,76.432503 122.137329,76.999237 
	C124.059425,77.279739 125.966423,77.663803 127.880249,78.001007 
	C128.205872,78.476021 128.531479,78.951035 128.895691,79.711792 
	C127.564438,79.994743 126.194611,79.991959 124.162094,79.716225 
	C121.998650,79.306908 120.497910,79.170547 118.997162,79.034180 
	C118.247910,79.020844 117.498650,79.007507 116.148712,78.727890 
	C113.358582,77.287460 111.169136,76.113319 108.979698,74.939178 
z"/>
<path fill="#F2F5F6" opacity="1.000000" stroke="none" 
	d="
M108.666092,75.033066 
	C111.169136,76.113319 113.358582,77.287460 115.774017,78.730705 
	C112.534081,78.679764 109.068153,78.359718 105.199265,77.979141 
	C105.981697,76.988060 107.167091,76.057503 108.666092,75.033066 
z"/>
<path fill="#F2F5F6" opacity="1.000000" stroke="none" 
	d="
M119.063721,79.385330 
	C120.497910,79.170547 121.998650,79.306908 123.750458,79.719711 
	C122.377769,79.909584 120.754021,79.823029 119.063721,79.385330 
z"/>
<path fill="#0B94A9" opacity="1.000000" stroke="none" 
	d="
M102.627975,73.981705 
	C102.704025,74.504929 102.486473,75.100601 101.919380,75.666718 
	C101.824677,75.109497 102.079529,74.581825 102.627975,73.981705 
z"/>
<path fill="#0B94A9" opacity="1.000000" stroke="none" 
	d="
M101.337883,75.773941 
	C101.518372,76.029999 101.450165,76.393021 101.084549,76.822578 
	C100.887833,76.553047 100.988503,76.216972 101.337883,75.773941 
z"/>
<path fill="#0B94A9" opacity="1.000000" stroke="none" 
	d="
M100.585968,76.878113 
	C100.755653,77.116409 100.650070,77.423943 100.322662,77.860352 
	C100.170784,77.641930 100.240738,77.294647 100.585968,76.878113 
z"/>
<path fill="#1697CA" opacity="1.000000" stroke="none" 
	d="
M153.985291,56.982101 
	C157.210678,62.040352 160.450684,67.089394 163.651611,72.163071 
	C164.492493,73.495903 165.212387,74.905060 165.988571,76.647003 
	C165.288208,76.657539 164.587128,76.300224 163.413284,75.578178 
	C161.208130,73.860512 159.475754,72.507576 158.023361,70.970886 
	C156.644272,67.821449 155.143112,64.741829 153.167984,62.004154 
	C152.845306,61.556904 150.431335,62.618446 148.654419,63.015877 
	C147.216385,63.688839 146.107880,64.328552 144.635834,65.018623 
	C142.514603,65.703964 140.756866,66.338959 138.804794,66.983063 
	C138.610443,66.992172 138.223846,67.036438 138.129608,66.777512 
	C137.974716,66.345634 137.914047,66.172676 137.931229,65.723869 
	C138.053741,65.069923 138.098419,64.691833 138.512878,64.282974 
	C140.605621,63.539711 142.328552,62.827221 144.410751,62.084309 
	C147.232620,60.366329 149.695251,58.678768 152.462540,56.991638 
	C153.173233,56.988747 153.579269,56.985424 153.985291,56.982101 
z"/>
<path fill="#D5D9DB" opacity="1.000000" stroke="none" 
	d="
M157.743362,71.154633 
	C159.475754,72.507576 161.208130,73.860512 163.126846,75.487259 
	C159.052734,76.713326 154.792313,77.665581 150.477173,78.061249 
	C151.831848,76.699127 153.241196,75.893585 154.650543,75.088043 
	C153.317154,74.157982 151.989517,73.219460 150.645355,72.305237 
	C150.386337,72.129066 150.062561,72.048134 149.950165,71.647583 
	C151.077042,70.887161 152.022400,70.402435 153.329788,69.950089 
	C155.042328,70.373199 156.392853,70.763916 157.743362,71.154633 
z"/>
<path fill="#C2C3C4" opacity="1.000000" stroke="none" 
	d="
M149.768646,71.923264 
	C150.062561,72.048134 150.386337,72.129066 150.645355,72.305237 
	C151.989517,73.219460 153.317154,74.157982 154.650543,75.088043 
	C153.241196,75.893585 151.831848,76.699127 150.200836,77.790207 
	C148.947113,78.085907 147.915070,78.096069 146.050110,78.076263 
	C143.155289,78.045845 141.093369,78.045395 139.031433,78.044952 
	C138.998138,77.881516 138.964844,77.718079 139.401474,77.294662 
	C143.148773,76.681297 146.426132,76.327904 151.150330,75.818497 
	C149.067581,74.092850 148.363892,73.509811 147.828552,72.682060 
	C148.317764,72.207153 148.638596,71.976959 149.159851,71.799561 
	C149.360260,71.852348 149.768646,71.923264 149.768646,71.923264 
z"/>
<path fill="#D5D9DB" opacity="1.000000" stroke="none" 
	d="
M138.963379,78.366776 
	C141.093369,78.045395 143.155289,78.045845 145.662918,78.094040 
	C144.024414,78.757591 141.940231,79.373398 139.434784,79.990273 
	C138.974152,79.557083 138.934738,79.122841 138.963379,78.366776 
z"/>
<path fill="#F4A73D" opacity="1.000000" stroke="none" 
	d="
M114.990143,41.161434 
	C115.739418,41.149445 116.488701,41.137455 118.010361,41.114643 
	C119.853645,41.055809 120.924538,41.007793 122.371170,41.010628 
	C123.500427,41.009281 124.253944,40.957088 125.381943,40.959267 
	C126.508102,41.083820 127.259773,41.154003 128.014832,41.572327 
	C129.338455,43.278137 130.658691,44.635803 131.866669,46.261269 
	C131.174301,47.021656 130.594223,47.514236 129.642242,47.965378 
	C127.628906,47.184578 126.011574,46.384933 124.341629,45.716793 
	C118.590523,43.415794 112.400764,45.291542 109.615395,50.015610 
	C108.495796,50.003246 107.749413,49.996292 107.003029,49.989334 
	C107.003029,49.989334 106.998779,49.999977 106.894852,49.780121 
	C106.590973,49.284660 106.327736,49.098564 106.001221,49.001976 
	C107.303261,46.873363 108.605301,44.744751 109.950058,42.267609 
	C110.730820,41.774822 111.468857,41.630566 112.800919,41.482491 
	C113.926682,41.372925 114.458412,41.267181 114.990143,41.161434 
z"/>
<path fill="#2679A7" opacity="1.000000" stroke="none" 
	d="
M115.026436,40.778320 
	C114.458412,41.267181 113.926682,41.372925 113.148361,41.337692 
	C114.837212,37.009651 116.772644,32.822590 118.858765,28.331448 
	C120.127899,27.693613 121.246346,27.359854 122.722061,27.052053 
	C120.407135,31.517076 117.734932,35.956139 115.026436,40.778320 
z"/>
<path fill="#EE8438" opacity="1.000000" stroke="none" 
	d="
M107.001587,50.423248 
	C107.749413,49.996292 108.495796,50.003246 109.846252,50.286758 
	C111.626617,50.717266 112.802917,50.871220 113.992355,51.254639 
	C114.005501,51.484097 114.015999,51.944107 114.042427,52.292576 
	C117.707932,56.553005 121.321365,60.489841 125.041092,64.323540 
	C125.301987,64.592430 126.349129,64.098450 127.303650,64.171951 
	C128.060272,65.917816 128.543915,67.450951 129.148605,69.301315 
	C129.850708,71.079941 130.431763,72.541344 131.007828,74.001320 
	C131.002838,73.999893 130.992874,73.996399 130.992874,73.996399 
	C129.509659,73.686485 128.026443,73.376579 125.947914,72.971062 
	C124.963577,72.577888 124.574554,72.280319 124.185532,71.982750 
	C122.400795,68.398270 120.616066,64.813782 118.563797,61.016483 
	C114.662880,58.799843 111.029488,56.796021 107.153503,54.562340 
	C106.940651,53.174042 106.970390,52.015598 107.001587,50.423248 
z"/>
<path fill="#EE8438" opacity="1.000000" stroke="none" 
	d="
M106.109352,49.222366 
	C106.327736,49.098564 106.590973,49.284660 106.900146,49.780121 
	C106.682777,49.903225 106.418816,49.717487 106.109352,49.222366 
z"/>
<path fill="#246490" opacity="1.000000" stroke="none" 
	d="
M138.223846,67.036438 
	C138.223846,67.036438 138.610443,66.992172 139.138229,67.046898 
	C141.501923,69.130524 143.337814,71.159424 144.910004,73.443069 
	C142.727341,74.205620 140.808380,74.713425 138.889420,75.221230 
	C138.889420,75.221230 138.580765,75.034019 138.429596,74.649147 
	C138.191559,73.842369 138.104706,73.420471 138.079651,72.574211 
	C138.168915,70.445381 138.196381,68.740913 138.223846,67.036438 
z"/>
<path fill="#BABCBD" opacity="1.000000" stroke="none" 
	d="
M124.035873,72.238358 
	C124.574554,72.280319 124.963577,72.577888 125.560547,73.012314 
	C126.421547,74.551163 127.074608,75.953163 127.803955,77.678085 
	C125.966423,77.663803 124.059425,77.279739 122.137329,76.999237 
	C118.253914,76.432503 118.957397,74.619858 121.014847,72.128220 
	C122.080734,72.037262 122.983475,72.265617 124.035873,72.238358 
z"/>
<path fill="#A3A5A6" opacity="1.000000" stroke="none" 
	d="
M138.872101,75.527786 
	C140.808380,74.713425 142.727341,74.205620 145.220642,73.394043 
	C146.416718,73.035767 147.038452,72.981270 147.660202,72.926773 
	C148.363892,73.509811 149.067581,74.092850 151.150330,75.818497 
	C146.426132,76.327904 143.148773,76.681297 139.429947,77.046097 
	C138.943924,76.649788 138.899353,76.242058 138.872101,75.527786 
z"/>
<path fill="#F29D43" opacity="1.000000" stroke="none" 
	d="
M138.017838,72.998566 
	C138.104706,73.420471 138.191559,73.842369 138.259506,74.588737 
	C135.939789,74.820549 133.638977,74.727905 131.165527,74.315826 
	C130.992874,73.996399 131.002838,73.999893 131.402130,73.994186 
	C133.873566,73.658501 135.945709,73.328529 138.017838,72.998566 
z"/>
<path fill="#1979C0" opacity="1.000000" stroke="none" 
	d="
M154.108307,56.700691 
	C153.579269,56.985424 153.173233,56.988747 152.502396,56.645615 
	C152.908783,54.567711 153.579987,52.836262 154.536758,50.841370 
	C155.152969,47.709717 155.483627,44.841511 155.851608,41.584221 
	C155.896317,40.413261 155.903717,39.631393 155.911118,38.849518 
	C156.370987,38.894108 156.830856,38.938694 157.635559,39.014481 
	C157.995377,41.399677 158.010361,43.753677 158.042816,46.549591 
	C157.399338,49.082527 156.738388,51.173550 156.035309,53.628040 
	C155.405899,54.800766 154.818619,55.610020 154.108307,56.700691 
z"/>
<path fill="#036C93" opacity="1.000000" stroke="none" 
	d="
M198.978928,105.043304 
	C200.213440,105.166367 201.447952,105.289436 203.541794,105.498177 
	C202.133804,107.841660 201.102814,109.557678 200.021851,111.627457 
	C198.908463,111.981674 197.845016,111.982147 196.426010,111.626755 
	C197.039932,109.195015 198.009430,107.119156 198.978928,105.043304 
z"/>
<path fill="#016287" opacity="1.000000" stroke="none" 
	d="
M198.604492,105.030617 
	C198.009430,107.119156 197.039932,109.195015 196.026825,111.614960 
	C195.231171,111.965874 194.479126,111.972710 193.351120,111.952789 
	C193.956161,109.861481 194.937149,107.796913 195.948608,105.388268 
	C196.729431,105.035439 197.479736,105.026688 198.604492,105.030617 
z"/>
<path fill="#E2E3E4" opacity="1.000000" stroke="none" 
	d="
M155.882141,38.547283 
	C155.903717,39.631393 155.896317,40.413261 155.520981,41.635147 
	C151.504944,45.584385 147.880249,49.118416 144.199295,52.592808 
	C142.237915,54.444107 140.179214,56.192291 138.105209,57.562080 
	C138.073105,55.423084 138.100235,53.709023 138.463715,51.956787 
	C144.203659,46.939423 149.607224,41.960228 155.010788,36.981033 
	C155.010788,36.981037 155.458603,36.978058 155.680176,37.005112 
	C155.885559,37.436455 155.869354,37.840752 155.882141,38.547283 
z"/>
<path fill="#CBCCCD" opacity="1.000000" stroke="none" 
	d="
M121.995422,40.959778 
	C120.924538,41.007793 119.853645,41.055809 118.381439,41.061573 
	C119.279099,39.218254 120.495995,37.350494 121.894043,35.629921 
	C124.852730,31.988663 127.905983,28.424236 130.966461,24.490692 
	C132.078659,24.049238 133.144836,23.945391 134.572693,24.264767 
	C133.604630,26.310537 132.251328,27.914450 130.949875,29.559389 
	C127.951668,33.348919 124.978653,37.158394 121.995422,40.959778 
z"/>
<path fill="#F8F9F9" opacity="1.000000" stroke="none" 
	d="
M146.028519,26.901302 
	C147.621002,28.036041 149.213470,29.170782 150.876312,30.963816 
	C146.648483,35.746761 142.350311,39.871410 137.977463,43.658936 
	C137.596802,42.496811 137.290802,41.671814 136.994843,40.489792 
	C137.711777,38.879253 138.320770,37.556942 139.144318,36.385452 
	C141.390625,33.190033 143.727524,30.058279 146.028519,26.901302 
z"/>
<path fill="#F0F3F4" opacity="1.000000" stroke="none" 
	d="
M138.052124,43.996063 
	C142.350311,39.871410 146.648483,35.746761 150.988724,31.272923 
	C151.921875,32.070831 152.812958,33.217922 153.402405,34.724327 
	C150.675735,37.503494 148.316055,39.993744 145.807159,42.323299 
	C143.323837,44.629108 140.689957,46.772770 138.053406,48.575661 
	C138.007187,46.774536 138.029663,45.385300 138.052124,43.996063 
z"/>
<path fill="#F0F3F4" opacity="1.000000" stroke="none" 
	d="
M145.892639,26.634151 
	C143.727524,30.058279 141.390625,33.190033 139.144318,36.385452 
	C138.320770,37.556942 137.711777,38.879253 136.997131,40.599396 
	C136.989380,41.066029 137.021545,41.282928 136.618057,41.159687 
	C134.814102,40.964073 133.413651,40.891697 132.054260,40.483509 
	C133.399216,37.768639 134.703094,35.389584 136.003479,33.005341 
	C136.000000,33.000153 136.010574,33.007019 136.353760,32.972168 
	C139.150635,30.569712 141.604340,28.202103 144.058029,25.834496 
	C144.624268,26.011997 145.190521,26.189501 145.892639,26.634151 
z"/>
<path fill="#D5D7D8" opacity="1.000000" stroke="none" 
	d="
M122.371170,41.010628 
	C124.978653,37.158394 127.951668,33.348919 130.949875,29.559389 
	C132.251328,27.914450 133.604630,26.310537 134.967438,24.343056 
	C136.386032,24.022331 137.771530,24.046543 139.125153,24.472578 
	C134.398010,30.217899 129.702728,35.561398 125.007454,40.904896 
	C124.253944,40.957088 123.500427,41.009281 122.371170,41.010628 
z"/>
<path fill="#EAEBEC" opacity="1.000000" stroke="none" 
	d="
M138.122101,48.987549 
	C140.689957,46.772770 143.323837,44.629108 145.807159,42.323299 
	C148.316055,39.993744 150.675735,37.503494 153.429352,35.039402 
	C154.083786,35.483227 154.409668,35.971294 154.873169,36.720200 
	C149.607224,41.960228 144.203659,46.939423 138.378098,51.722775 
	C137.956100,51.526936 137.773926,51.063213 137.842926,50.718918 
	C137.981979,49.912266 138.052032,49.449905 138.122101,48.987549 
z"/>
<path fill="#E2E3E4" opacity="1.000000" stroke="none" 
	d="
M125.381943,40.959267 
	C129.702728,35.561398 134.398010,30.217899 139.466446,24.716526 
	C140.071167,24.747719 140.324539,24.900663 140.759491,25.435726 
	C139.283035,28.238316 137.646805,30.622667 136.010574,33.007019 
	C136.010574,33.007019 136.000000,33.000153 135.656342,33.035870 
	C133.210175,35.669281 131.107681,38.266975 128.757126,40.955589 
	C128.343185,41.105728 128.177322,41.164955 128.011444,41.224182 
	C127.259773,41.154003 126.508102,41.083820 125.381943,40.959267 
z"/>
<path fill="#EAEBEC" opacity="1.000000" stroke="none" 
	d="
M136.353760,32.972168 
	C137.646805,30.622667 139.283035,28.238316 140.964966,25.521996 
	C141.895996,25.220650 142.781326,25.251270 143.862335,25.558191 
	C141.604340,28.202103 139.150635,30.569712 136.353760,32.972168 
z"/>
<path fill="#D5D7D8" opacity="1.000000" stroke="none" 
	d="
M138.164444,57.987019 
	C140.179214,56.192291 142.237915,54.444107 144.199295,52.592808 
	C147.880249,49.118416 151.504944,45.584385 155.483658,42.024235 
	C155.483627,44.841511 155.152969,47.709717 154.171539,50.834717 
	C150.364334,54.765915 147.207916,58.440323 144.051498,62.114727 
	C142.328552,62.827221 140.605621,63.539711 138.464996,63.837860 
	C137.975449,61.953087 137.903564,60.482658 137.913925,58.755547 
	C138.052246,58.328251 138.108337,58.157635 138.164444,57.987019 
z"/>
<path fill="#F8BA38" opacity="1.000000" stroke="none" 
	d="
M137.831696,59.012234 
	C137.903564,60.482658 137.975449,61.953087 138.095215,63.868622 
	C138.098419,64.691833 138.053741,65.069923 137.565430,65.730286 
	C134.423706,67.003059 131.725632,67.993576 129.027542,68.984085 
	C128.543915,67.450951 128.060272,65.917816 127.314590,63.924164 
	C127.052544,63.463650 127.103104,62.969341 127.461182,62.934967 
	C131.156738,61.604477 134.494217,60.308353 137.831696,59.012234 
z"/>
<path fill="#F7AA37" opacity="1.000000" stroke="none" 
	d="
M129.148605,69.301315 
	C131.725632,67.993576 134.423706,67.003059 137.487595,66.006134 
	C137.914047,66.172676 137.974716,66.345634 138.129608,66.777512 
	C138.196381,68.740913 138.168915,70.445381 138.079651,72.574211 
	C135.945709,73.328529 133.873566,73.658501 131.407135,73.995605 
	C130.431763,72.541344 129.850708,71.079941 129.148605,69.301315 
z"/>
<path fill="#0C8CBB" opacity="1.000000" stroke="none" 
	d="
M158.023361,70.970886 
	C156.392853,70.763916 155.042328,70.373199 153.333832,69.592964 
	C151.645233,67.129845 150.314590,65.056236 148.983948,62.982635 
	C150.431335,62.618446 152.845306,61.556904 153.167984,62.004154 
	C155.143112,64.741829 156.644272,67.821449 158.023361,70.970886 
z"/>
<path fill="#106AA6" opacity="1.000000" stroke="none" 
	d="
M147.828552,72.682060 
	C147.038452,72.981270 146.416718,73.035767 145.484344,73.139290 
	C143.337814,71.159424 141.501923,69.130524 139.332581,67.037781 
	C140.756866,66.338959 142.514603,65.703964 144.779175,65.325165 
	C146.510513,67.636482 147.734985,69.691620 148.959442,71.746765 
	C148.638596,71.976959 148.317764,72.207153 147.828552,72.682060 
z"/>
<path fill="#CBCCCD" opacity="1.000000" stroke="none" 
	d="
M144.410751,62.084309 
	C147.207916,58.440323 150.364334,54.765915 153.885971,51.098160 
	C153.579987,52.836262 152.908783,54.567711 152.197723,56.645184 
	C149.695251,58.678768 147.232620,60.366329 144.410751,62.084309 
z"/>
<path fill="#107EB5" opacity="1.000000" stroke="none" 
	d="
M149.159851,71.799561 
	C147.734985,69.691620 146.510513,67.636482 145.142700,65.274811 
	C146.107880,64.328552 147.216385,63.688839 148.654419,63.015877 
	C150.314590,65.056236 151.645233,67.129845 152.971802,69.560577 
	C152.022400,70.402435 151.077042,70.887161 149.950165,71.647583 
	C149.768646,71.923264 149.360260,71.852348 149.159851,71.799561 
z"/>
<path fill="#FBDB3D" opacity="1.000000" stroke="none" 
	d="
M138.053406,48.575661 
	C138.052032,49.449905 137.981979,49.912266 137.598389,50.941048 
	C133.232346,53.326382 129.179825,55.145294 125.067383,56.650169 
	C124.668793,55.558208 124.330124,54.780277 124.274017,53.873978 
	C125.373215,52.833084 126.189850,51.920567 127.286240,50.875454 
	C128.382034,49.830849 129.198090,48.918835 130.014130,48.006821 
	C130.594223,47.514236 131.174301,47.021656 132.154816,46.121460 
	C134.043991,44.236874 135.532776,42.759903 137.021545,41.282928 
	C137.021545,41.282928 136.989380,41.066029 136.987091,40.956421 
	C137.290802,41.671814 137.596802,42.496811 137.977478,43.658936 
	C138.029663,45.385300 138.007187,46.774536 138.053406,48.575661 
z"/>
<path fill="#F8B337" opacity="1.000000" stroke="none" 
	d="
M129.642242,47.965382 
	C129.198090,48.918835 128.382034,49.830849 126.963135,50.711746 
	C120.423370,46.953579 117.424973,47.037022 113.979218,51.025177 
	C112.802917,50.871220 111.626617,50.717266 110.219467,50.292168 
	C112.400764,45.291542 118.590523,43.415794 124.341629,45.716793 
	C126.011574,46.384933 127.628906,47.184578 129.642242,47.965382 
z"/>
<path fill="#F49539" opacity="1.000000" stroke="none" 
	d="
M136.618057,41.159687 
	C135.532776,42.759903 134.043991,44.236874 132.267075,45.853653 
	C130.658691,44.635803 129.338455,43.278137 128.014832,41.572327 
	C128.177322,41.164955 128.343185,41.105728 129.131561,41.013458 
	C130.507095,40.926716 131.260132,40.873020 132.013184,40.819324 
	C133.413651,40.891697 134.814102,40.964073 136.618057,41.159687 
z"/>
<path fill="#F37A36" opacity="1.000000" stroke="none" 
	d="
M123.991455,54.002346 
	C124.330124,54.780277 124.668793,55.558208 125.151550,56.994476 
	C125.898132,59.424992 126.500618,61.197166 127.103104,62.969345 
	C127.103104,62.969341 127.052544,63.463650 127.041595,63.711433 
	C126.349129,64.098450 125.301987,64.592430 125.041092,64.323540 
	C121.321365,60.489841 117.707932,56.553005 114.436661,52.319458 
	C117.866791,52.666027 120.929123,53.334187 123.991455,54.002346 
z"/>
<path fill="#F9C138" opacity="1.000000" stroke="none" 
	d="
M124.274017,53.873978 
	C120.929123,53.334187 117.866791,52.666027 114.410233,51.970985 
	C114.015999,51.944107 114.005501,51.484097 113.992355,51.254635 
	C117.424973,47.037022 120.423370,46.953579 126.683380,50.844337 
	C126.189850,51.920567 125.373215,52.833084 124.274017,53.873978 
z"/>
<path fill="#FACB3B" opacity="1.000000" stroke="none" 
	d="
M127.461174,62.934971 
	C126.500618,61.197166 125.898132,59.424992 125.211472,57.308510 
	C129.179825,55.145294 133.232346,53.326382 137.529388,51.285343 
	C137.773926,51.063213 137.956100,51.526936 138.041718,51.760948 
	C138.100235,53.709023 138.073105,55.423084 138.105209,57.562080 
	C138.108337,58.157635 138.052246,58.328251 137.913925,58.755547 
	C134.494217,60.308353 131.156738,61.604477 127.461174,62.934971 
z"/>
<path fill="#EAEBEC" opacity="1.000000" stroke="none" 
	d="
M132.054260,40.483509 
	C131.260132,40.873020 130.507095,40.926716 129.379608,40.922543 
	C131.107681,38.266975 133.210175,35.669281 135.659821,33.041058 
	C134.703094,35.389584 133.399216,37.768639 132.054260,40.483509 
z"/>
</svg>