<?xml version="1.0" encoding="UTF-8"?>
<!DOCTYPE svg PUBLIC "-//W3C//DTD SVG 1.1//EN" "http://www.w3.org/Graphics/SVG/1.1/DTD/svg11.dtd">
<svg xmlns="http://www.w3.org/2000/svg" version="1.1" width="259px" height="132px" style="shape-rendering:geometricPrecision; text-rendering:geometricPrecision; image-rendering:optimizeQuality; fill-rule:evenodd; clip-rule:evenodd" xmlns:xlink="http://www.w3.org/1999/xlink">
<g><path style="opacity:1" fill="#13639e" d="M 132.5,-0.5 C 133.167,-0.5 133.833,-0.5 134.5,-0.5C 134.652,3.26174 135.319,6.92841 136.5,10.5C 139.276,11.5148 141.943,12.5148 144.5,13.5C 145.961,17.4084 144.628,19.9084 140.5,21C 143.553,22.5266 146.553,24.0266 149.5,25.5C 150.934,28.0472 152.6,30.3805 154.5,32.5C 154.5,33.1667 154.5,33.8333 154.5,34.5C 154.5,35.1667 154.167,35.5 153.5,35.5C 152.737,33.6316 151.737,31.9649 150.5,30.5C 149.833,29.1667 148.833,28.1667 147.5,27.5C 146.341,25.7497 144.674,24.7497 142.5,24.5C 139.829,22.8819 136.829,22.2153 133.5,22.5C 122.563,23.1009 115.897,28.7676 113.5,39.5C 112.503,39.5299 111.836,39.0299 111.5,38C 113.302,32.2042 116.635,27.5375 121.5,24C 118.867,24.2532 116.2,24.2532 113.5,24C 114.774,23.0228 114.774,22.1894 113.5,21.5C 113.446,19.8063 113.446,18.1396 113.5,16.5C 119.062,14.5567 124.729,12.8901 130.5,11.5C 131.167,7.5 131.833,3.5 132.5,-0.5 Z"/></g>
<g><path style="opacity:0.878" fill="#01a8bc" d="M 171.5,4.5 C 167.5,11.1667 163.5,17.8333 159.5,24.5C 157.347,26.7937 155.68,29.4604 154.5,32.5C 152.6,30.3805 150.934,28.0472 149.5,25.5C 156.833,18.5 164.167,11.5 171.5,4.5 Z"/></g>
<g><path style="opacity:0.985" fill="#04517d" d="M 113.5,16.5 C 113.446,18.1396 113.446,19.8063 113.5,21.5C 111.5,21.8333 109.5,22.1667 107.5,22.5C 103.197,17.3529 99.0304,12.0196 95,6.5C 94.0181,5.24109 93.6848,3.90775 94,2.5C 100.832,6.82055 107.332,11.4872 113.5,16.5 Z"/></g>
<g><path style="opacity:1" fill="#177cbe" d="M 171.5,4.5 C 164.167,11.5 156.833,18.5 149.5,25.5C 146.553,24.0266 143.553,22.5266 140.5,21C 144.628,19.9084 145.961,17.4084 144.5,13.5C 146.928,14.2122 149.261,15.2122 151.5,16.5C 158.344,11.9114 165.01,7.07812 171.5,2C 174.027,2.23256 174.027,3.06589 171.5,4.5 Z"/></g>
<g><path style="opacity:1" fill="#eeefef" d="M 142.5,24.5 C 144.674,24.7497 146.341,25.7497 147.5,27.5C 142.444,30.2227 138.777,34.2227 136.5,39.5C 136.167,39.5 135.833,39.5 135.5,39.5C 132.833,39.5 130.167,39.5 127.5,39.5C 131.5,33.5 136.5,28.5 142.5,24.5 Z"/></g>
<g><path style="opacity:1" fill="#bfc0c2" d="M 133.5,22.5 C 128.255,28.0196 123.255,33.6863 118.5,39.5C 116.833,39.5 115.167,39.5 113.5,39.5C 115.897,28.7676 122.563,23.1009 133.5,22.5 Z"/></g>
<g><path style="opacity:1" fill="#f8f9f9" d="M 147.5,27.5 C 148.833,28.1667 149.833,29.1667 150.5,30.5C 146.539,36.1286 141.873,41.1286 136.5,45.5C 136.5,43.5 136.5,41.5 136.5,39.5C 138.777,34.2227 142.444,30.2227 147.5,27.5 Z"/></g>
<g><path style="opacity:0.966" fill="#05b4c7" d="M 159.5,24.5 C 161.086,26.6705 162.42,29.0038 163.5,31.5C 158.596,35.9796 157.429,41.3129 160,47.5C 160.333,46.8333 160.667,46.1667 161,45.5C 161.696,48.4781 162.196,51.4781 162.5,54.5C 162.34,56.153 161.674,57.4863 160.5,58.5C 159.368,54.4379 158.035,50.4379 156.5,46.5C 156.917,42.1829 156.25,38.1829 154.5,34.5C 154.5,33.8333 154.5,33.1667 154.5,32.5C 155.68,29.4604 157.347,26.7937 159.5,24.5 Z"/></g>
<g><path style="opacity:0.957" fill="#136d91" d="M 113.5,21.5 C 114.774,22.1894 114.774,23.0228 113.5,24C 116.2,24.2532 118.867,24.2532 121.5,24C 116.635,27.5375 113.302,32.2042 111.5,38C 111.836,39.0299 112.503,39.5299 113.5,39.5C 111.052,40.4731 108.385,40.8064 105.5,40.5C 104.209,40.7373 103.209,40.404 102.5,39.5C 103.975,33.7456 105.641,28.0789 107.5,22.5C 109.5,22.1667 111.5,21.8333 113.5,21.5 Z"/></g>
<g><path style="opacity:1" fill="#d9dadb" d="M 133.5,22.5 C 136.829,22.2153 139.829,22.8819 142.5,24.5C 136.5,28.5 131.5,33.5 127.5,39.5C 124.5,39.5 121.5,39.5 118.5,39.5C 123.255,33.6863 128.255,28.0196 133.5,22.5 Z"/></g>
<g><path style="opacity:1" fill="#e3e4e5" d="M 150.5,30.5 C 151.737,31.9649 152.737,33.6316 153.5,35.5C 153.5,36.1667 153.5,36.8333 153.5,37.5C 153.66,39.1992 153.494,40.8659 153,42.5C 147.27,48.0619 141.77,53.7286 136.5,59.5C 136.5,54.8333 136.5,50.1667 136.5,45.5C 141.873,41.1286 146.539,36.1286 150.5,30.5 Z"/></g>
<g><path style="opacity:0.979" fill="#01c4d1" d="M 163.5,31.5 C 163.779,34.1178 164.446,36.6178 165.5,39C 169.5,40 173.5,41 177.5,42C 173.644,43.4757 169.644,44.6424 165.5,45.5C 164.814,48.723 163.814,51.723 162.5,54.5C 162.196,51.4781 161.696,48.4781 161,45.5C 160.667,46.1667 160.333,46.8333 160,47.5C 157.429,41.3129 158.596,35.9796 163.5,31.5 Z"/></g>
<g><path style="opacity:0.942" fill="#f28a35" d="M 102.5,39.5 C 103.209,40.404 104.209,40.7373 105.5,40.5C 104.19,42.1477 102.857,43.8144 101.5,45.5C 103.643,47.21 105.977,48.5433 108.5,49.5C 110.909,51.9024 112.909,54.5691 114.5,57.5C 110.957,55.5617 107.29,53.8951 103.5,52.5C 95.8599,48.6799 88.1932,44.8466 80.5,41C 87.8145,40.1683 95.1478,39.6683 102.5,39.5 Z"/></g>
<g><path style="opacity:1" fill="#f4a43a" d="M 113.5,39.5 C 115.167,39.5 116.833,39.5 118.5,39.5C 121.5,39.5 124.5,39.5 127.5,39.5C 130.167,39.5 132.833,39.5 135.5,39.5C 135.5,39.8333 135.5,40.1667 135.5,40.5C 132.5,43.1667 129.5,45.8333 126.5,48.5C 121.812,45.2898 116.812,44.7898 111.5,47C 110.402,47.7697 110.402,48.603 111.5,49.5C 110.5,49.5 109.5,49.5 108.5,49.5C 105.977,48.5433 103.643,47.21 101.5,45.5C 102.857,43.8144 104.19,42.1477 105.5,40.5C 108.385,40.8064 111.052,40.4731 113.5,39.5 Z"/></g>
<g><path style="opacity:1" fill="#d0d2d4" d="M 153.5,37.5 C 156.074,51.3358 150.407,59.6691 136.5,62.5C 136.5,61.5 136.5,60.5 136.5,59.5C 141.77,53.7286 147.27,48.0619 153,42.5C 153.494,40.8659 153.66,39.1992 153.5,37.5 Z"/></g>
<g><path style="opacity:1" fill="#fbda39" d="M 135.5,40.5 C 135.826,44.8839 135.492,49.2172 134.5,53.5C 131.145,54.8462 127.812,56.1796 124.5,57.5C 123.766,56.2921 123.433,54.9587 123.5,53.5C 124.075,51.5887 125.075,49.922 126.5,48.5C 129.5,45.8333 132.5,43.1667 135.5,40.5 Z"/></g>
<g><path style="opacity:1" fill="#f27e36" d="M 108.5,49.5 C 109.5,49.5 110.5,49.5 111.5,49.5C 115.563,50.6321 119.563,51.9654 123.5,53.5C 123.433,54.9587 123.766,56.2921 124.5,57.5C 125.5,60.8333 126.5,64.1667 127.5,67.5C 127.565,67.9382 127.399,68.2716 127,68.5C 124.564,65.5532 121.731,63.2199 118.5,61.5C 118.167,60.8333 117.833,60.1667 117.5,59.5C 116.71,58.5987 115.71,57.9321 114.5,57.5C 112.909,54.5691 110.909,51.9024 108.5,49.5 Z"/></g>
<g><path style="opacity:1" fill="#f8c13c" d="M 126.5,48.5 C 125.075,49.922 124.075,51.5887 123.5,53.5C 119.563,51.9654 115.563,50.6321 111.5,49.5C 110.402,48.603 110.402,47.7697 111.5,47C 116.812,44.7898 121.812,45.2898 126.5,48.5 Z"/></g>
<g><path style="opacity:0.997" fill="#12a1c7" d="M 156.5,46.5 C 158.035,50.4379 159.368,54.4379 160.5,58.5C 159.528,60.9197 160.195,62.9197 162.5,64.5C 165.529,70.5575 169.529,75.8908 174.5,80.5C 174.196,82.7957 173.196,83.129 171.5,81.5C 165.192,76.3437 158.525,71.677 151.5,67.5C 151.693,64.5253 150.693,62.0253 148.5,60C 152.359,56.1025 155.025,51.6025 156.5,46.5 Z"/></g>
<g><path style="opacity:0.979" fill="#238ca3" d="M 103.5,52.5 C 107.29,53.8951 110.957,55.5617 114.5,57.5C 115.71,57.9321 116.71,58.5987 117.5,59.5C 114.606,60.8823 112.106,62.8823 110,65.5C 106.535,69.9668 102.702,74.1334 98.5,78C 98.7284,78.3988 99.0618,78.5654 99.5,78.5C 98.8333,79.5 98.1667,80.5 97.5,81.5C 96.4168,81.5394 95.4168,81.8728 94.5,82.5C 94.9125,81.2176 94.2458,80.2176 92.5,79.5C 94.9032,79.607 96.7365,78.607 98,76.5C 100.772,72.612 103.272,68.612 105.5,64.5C 106.29,63.2058 107.29,62.0391 108.5,61C 106.948,58.0568 105.281,55.2235 103.5,52.5 Z"/></g>
<g><path style="opacity:1" fill="#f8bd3a" d="M 135.5,39.5 C 135.833,39.5 136.167,39.5 136.5,39.5C 136.5,41.5 136.5,43.5 136.5,45.5C 136.5,50.1667 136.5,54.8333 136.5,59.5C 136.5,60.5 136.5,61.5 136.5,62.5C 136.5,63.1667 136.5,63.8333 136.5,64.5C 136.5,64.8333 136.5,65.1667 136.5,65.5C 136.5,67.1667 136.5,68.8333 136.5,70.5C 134.634,71.0138 132.8,71.6805 131,72.5C 129.377,71.079 128.21,69.4124 127.5,67.5C 126.5,64.1667 125.5,60.8333 124.5,57.5C 127.812,56.1796 131.145,54.8462 134.5,53.5C 135.492,49.2172 135.826,44.8839 135.5,40.5C 135.5,40.1667 135.5,39.8333 135.5,39.5 Z"/></g>
<g><path style="opacity:1" fill="#1c82bb" d="M 154.5,34.5 C 156.25,38.1829 156.917,42.1829 156.5,46.5C 155.025,51.6025 152.359,56.1025 148.5,60C 150.693,62.0253 151.693,64.5253 151.5,67.5C 151.167,68.1667 150.833,68.8333 150.5,69.5C 149.167,69.8333 147.833,70.1667 146.5,70.5C 145.452,65.0632 142.119,63.0632 136.5,64.5C 136.5,63.8333 136.5,63.1667 136.5,62.5C 150.407,59.6691 156.074,51.3358 153.5,37.5C 153.5,36.8333 153.5,36.1667 153.5,35.5C 154.167,35.5 154.5,35.1667 154.5,34.5 Z"/></g>
<g><path style="opacity:0.757" fill="#f4f6f7" d="M 105.5,64.5 C 103.272,68.612 100.772,72.612 98,76.5C 96.7365,78.607 94.9032,79.607 92.5,79.5C 90.0637,79.683 87.897,79.0163 86,77.5C 85.1786,74.4459 85.3452,71.4459 86.5,68.5C 92.3895,65.1426 98.7229,63.8093 105.5,64.5 Z"/></g>
<g><path style="opacity:1" fill="#0f4878" d="M 117.5,59.5 C 117.833,60.1667 118.167,60.8333 118.5,61.5C 120.196,64.8501 121.863,68.1835 123.5,71.5C 120.577,70.705 117.91,69.3716 115.5,67.5C 112.508,69.1712 109.841,71.1712 107.5,73.5C 104.833,75.1667 102.167,76.8333 99.5,78.5C 99.0618,78.5654 98.7284,78.3988 98.5,78C 102.702,74.1334 106.535,69.9668 110,65.5C 112.106,62.8823 114.606,60.8823 117.5,59.5 Z"/></g>
<g><path style="opacity:1" fill="#0f629c" d="M 136.5,65.5 C 136.5,65.1667 136.5,64.8333 136.5,64.5C 142.119,63.0632 145.452,65.0632 146.5,70.5C 143.781,71.913 140.781,72.5797 137.5,72.5C 137.802,69.9407 137.468,67.6074 136.5,65.5 Z"/></g>
<g><path style="opacity:0.936" fill="#eaedee" d="M 162.5,64.5 C 170.166,64.331 177.333,65.9977 184,69.5C 184.667,72.1667 184.667,74.8333 184,77.5C 181.066,79.1927 177.899,80.1927 174.5,80.5C 169.529,75.8908 165.529,70.5575 162.5,64.5 Z"/></g>
<g><path style="opacity:1" fill="#d1d3d3" d="M 123.5,71.5 C 125.008,73.1815 126.008,75.1815 126.5,77.5C 119.807,77.4291 113.474,76.0957 107.5,73.5C 109.841,71.1712 112.508,69.1712 115.5,67.5C 117.91,69.3716 120.577,70.705 123.5,71.5 Z"/></g>
<g><path style="opacity:1" fill="#f28f3a" d="M 118.5,61.5 C 121.731,63.2199 124.564,65.5532 127,68.5C 127.399,68.2716 127.565,67.9382 127.5,67.5C 128.21,69.4124 129.377,71.079 131,72.5C 132.8,71.6805 134.634,71.0138 136.5,70.5C 136.993,72.8056 137.326,75.139 137.5,77.5C 137.5,78.8333 137.5,80.1667 137.5,81.5C 137.666,86.5111 137.499,91.5111 137,96.5C 134.155,91.4727 131.321,86.4727 128.5,81.5C 128.938,81.5654 129.272,81.3988 129.5,81C 128.837,79.4815 127.837,78.3149 126.5,77.5C 126.008,75.1815 125.008,73.1815 123.5,71.5C 121.863,68.1835 120.196,64.8501 118.5,61.5 Z"/></g>
<g><path style="opacity:1" fill="#c1c4c5" d="M 136.5,65.5 C 137.468,67.6074 137.802,69.9407 137.5,72.5C 140.781,72.5797 143.781,71.913 146.5,70.5C 147.833,70.1667 149.167,69.8333 150.5,69.5C 152.788,70.0735 154.955,71.0735 157,72.5C 157.507,73.9961 157.007,75.1627 155.5,76C 149.523,76.8309 143.523,77.3309 137.5,77.5C 137.326,75.139 136.993,72.8056 136.5,70.5C 136.5,68.8333 136.5,67.1667 136.5,65.5 Z"/></g>
<g><path style="opacity:0.49" fill="#f1f3f4" d="M 107.5,73.5 C 113.474,76.0957 119.807,77.4291 126.5,77.5C 127.837,78.3149 128.837,79.4815 129.5,81C 129.272,81.3988 128.938,81.5654 128.5,81.5C 118.167,81.5 107.833,81.5 97.5,81.5C 98.1667,80.5 98.8333,79.5 99.5,78.5C 102.167,76.8333 104.833,75.1667 107.5,73.5 Z"/></g>
<g><path style="opacity:0.991" fill="#eceeef" d="M 151.5,67.5 C 158.525,71.677 165.192,76.3437 171.5,81.5C 160.167,81.5 148.833,81.5 137.5,81.5C 137.5,80.1667 137.5,78.8333 137.5,77.5C 143.523,77.3309 149.523,76.8309 155.5,76C 157.007,75.1627 157.507,73.9961 157,72.5C 154.955,71.0735 152.788,70.0735 150.5,69.5C 150.833,68.8333 151.167,68.1667 151.5,67.5 Z"/></g>
<g><path style="opacity:1" fill="#027197" d="M 97.5,103.5 C 92.8333,103.5 88.1667,103.5 83.5,103.5C 82.5272,104.791 81.5272,104.791 80.5,103.5C 77.1035,107.279 73.9369,111.279 71,115.5C 70.5172,116.448 70.3505,117.448 70.5,118.5C 67.7133,117.622 66.38,115.622 66.5,112.5C 67.8868,106.279 71.8868,103.113 78.5,103C 85.0137,102.18 91.3471,102.347 97.5,103.5 Z"/></g>
<g><path style="opacity:1" fill="#078cae" d="M 53.5,124.5 C 47.2745,123.16 45.9412,119.827 49.5,114.5C 51.934,111.151 54.2673,107.651 56.5,104C 59.7533,102.344 63.0867,102.177 66.5,103.5C 62.4063,110.696 58.0729,117.696 53.5,124.5 Z"/></g>
<g><path style="opacity:1" fill="#029ab4" d="M 173.5,103.5 C 175.936,103.317 178.103,103.984 180,105.5C 181.904,108.923 182.737,112.59 182.5,116.5C 179.272,117.414 175.939,117.747 172.5,117.5C 172.946,114.99 172.28,112.99 170.5,111.5C 166.979,110.834 163.313,110.167 159.5,109.5C 160.248,107.668 161.248,106.001 162.5,104.5C 166.107,103.511 169.774,103.177 173.5,103.5 Z"/></g>
<g><path style="opacity:1" fill="#00a5b9" d="M 31.5,103.5 C 32.7563,105.726 32.7563,108.059 31.5,110.5C 27.1539,110.666 22.8206,110.499 18.5,110C 21.1277,108.374 23.461,106.374 25.5,104C 27.4727,103.505 29.4727,103.338 31.5,103.5 Z"/></g>
<g><path style="opacity:1" fill="#046e96" d="M 216.5,103.5 C 209.378,101.756 204.045,103.923 200.5,110C 206.491,110.499 212.491,110.666 218.5,110.5C 218.263,109.209 218.596,108.209 219.5,107.5C 219.5,108.833 219.5,110.167 219.5,111.5C 208.833,111.5 198.167,111.5 187.5,111.5C 187.337,109.143 187.503,106.81 188,104.5C 188.75,103.874 189.584,103.374 190.5,103C 199.343,102.176 208.01,102.343 216.5,103.5 Z"/></g>
<g><path style="opacity:1" fill="#055b85" d="M 243.5,104.5 C 240.313,106.344 238.313,109.011 237.5,112.5C 235.44,109.76 233.774,106.76 232.5,103.5C 234.134,102.839 235.967,102.506 238,102.5C 240.295,102.547 242.129,103.213 243.5,104.5 Z"/></g>
<g><path style="opacity:1" fill="#04789d" d="M 31.5,103.5 C 29.4727,103.338 27.4727,103.505 25.5,104C 23.461,106.374 21.1277,108.374 18.5,110C 22.8206,110.499 27.1539,110.666 31.5,110.5C 24.9881,111.167 18.3214,111.833 11.5,112.5C 15.7956,113.328 20.1289,113.828 24.5,114C 27.4453,114.139 29.7786,115.306 31.5,117.5C 28.4018,118.216 25.4018,119.216 22.5,120.5C 16.3792,120.91 10.3792,120.41 4.5,119C -0.123809,115.336 -0.623809,111.169 3,106.5C 5.79477,104.354 8.96143,103.187 12.5,103C 19.0137,102.18 25.3471,102.347 31.5,103.5 Z"/></g>
<g><path style="opacity:1" fill="#01a9bd" d="M 83.5,103.5 C 88.1667,103.5 92.8333,103.5 97.5,103.5C 98.8333,105.167 98.8333,106.833 97.5,108.5C 91.7845,110.55 85.7845,111.05 79.5,110C 81.2318,108.028 82.5652,105.861 83.5,103.5 Z"/></g>
<g><path style="opacity:1" fill="#0394b1" d="M 216.5,103.5 C 218.446,104.035 219.446,105.368 219.5,107.5C 218.596,108.209 218.263,109.209 218.5,110.5C 212.491,110.666 206.491,110.499 200.5,110C 204.045,103.923 209.378,101.756 216.5,103.5 Z"/></g>
<g><path style="opacity:1" fill="#02a1ba" d="M 126.5,103.5 C 131.05,103.107 134.383,104.774 136.5,108.5C 131.241,111.117 125.907,110.784 120.5,107.5C 119.571,106.311 119.238,104.978 119.5,103.5C 121.833,103.5 124.167,103.5 126.5,103.5 Z"/></g>
<g><path style="opacity:1" fill="#0a73a3" d="M 126.5,103.5 C 124.167,103.5 121.833,103.5 119.5,103.5C 119.238,104.978 119.571,106.311 120.5,107.5C 125.907,110.784 131.241,111.117 136.5,108.5C 137.451,109.919 137.784,111.585 137.5,113.5C 133.731,113.756 130.064,113.423 126.5,112.5C 119.018,111.508 111.352,111.175 103.5,111.5C 103.225,107.79 104.558,104.957 107.5,103C 114.014,102.18 120.347,102.347 126.5,103.5 Z"/></g>
<g><path style="opacity:1" fill="#076f94" d="M 173.5,103.5 C 169.774,103.177 166.107,103.511 162.5,104.5C 161.248,106.001 160.248,107.668 159.5,109.5C 163.313,110.167 166.979,110.834 170.5,111.5C 164.824,111.334 159.157,111.501 153.5,112C 152.556,114.719 152.223,117.552 152.5,120.5C 149.424,118.894 146.091,117.894 142.5,117.5C 141.702,112.285 143.036,107.785 146.5,104C 155.613,102.274 164.613,102.107 173.5,103.5 Z"/></g>
<g><path style="opacity:1" fill="#0588aa" d="M 83.5,103.5 C 82.5652,105.861 81.2318,108.028 79.5,110C 85.7845,111.05 91.7845,110.55 97.5,108.5C 97.5,109.5 97.5,110.5 97.5,111.5C 90.8002,111.17 84.1335,111.503 77.5,112.5C 83.194,113.207 88.8607,114.04 94.5,115C 96.3237,115.66 97.657,116.827 98.5,118.5C 94.5422,118.251 90.8756,118.918 87.5,120.5C 82.4889,120.666 77.4889,120.499 72.5,120C 71.5842,119.722 70.9175,119.222 70.5,118.5C 70.3505,117.448 70.5172,116.448 71,115.5C 73.9369,111.279 77.1035,107.279 80.5,103.5C 81.5272,104.791 82.5272,104.791 83.5,103.5 Z"/></g>
<g><path style="opacity:1" fill="#1e88d5" d="M 46.5,111.5 C 45.0892,113.914 43.0892,115.581 40.5,116.5C 39.0299,114.849 37.6966,113.015 36.5,111C 40.0267,110.192 43.3601,110.359 46.5,111.5 Z"/></g>
<g><path style="opacity:0.984" fill="#0a548b" d="M 126.5,112.5 C 130.064,113.423 133.731,113.756 137.5,113.5C 134.58,119.292 129.913,121.958 123.5,121.5C 120.167,121.5 116.833,121.5 113.5,121.5C 112.475,121.103 112.308,120.437 113,119.5C 114.62,117.759 116.12,115.925 117.5,114C 120.695,113.819 123.695,113.319 126.5,112.5 Z"/></g>
<g><path style="opacity:0.985" fill="#054478" d="M 98.5,118.5 C 99.6341,120.966 99.8007,123.633 99,126.5C 97.1951,128.826 95.0284,130.492 92.5,131.5C 86.8333,131.5 81.1667,131.5 75.5,131.5C 77.6782,129.142 79.3449,126.475 80.5,123.5C 83.5719,123.817 86.5719,123.484 89.5,122.5C 89.1445,121.478 88.4778,120.811 87.5,120.5C 90.8756,118.918 94.5422,118.251 98.5,118.5 Z"/></g>
<g><path style="opacity:0.973" fill="#0682a8" d="M 243.5,104.5 C 247.337,110.17 250.67,116.17 253.5,122.5C 250.574,123.461 247.574,124.127 244.5,124.5C 242.5,120.833 240.5,117.167 238.5,113.5C 238.5,112.833 238.167,112.5 237.5,112.5C 238.313,109.011 240.313,106.344 243.5,104.5 Z"/></g>
<g><path style="opacity:0.916" fill="#023868" d="M 31.5,117.5 C 32.1174,117.611 32.6174,117.944 33,118.5C 34.8984,124.613 33.065,128.947 27.5,131.5C 24.8333,131.5 22.1667,131.5 19.5,131.5C 23.1322,126.533 27.1322,121.867 31.5,117.5 Z"/></g>
<g><path style="opacity:1" fill="#0f5d9a" d="M 232.5,103.5 C 233.774,106.76 235.44,109.76 237.5,112.5C 238.167,112.5 238.5,112.833 238.5,113.5C 237.624,113.369 236.957,113.702 236.5,114.5C 233.139,120.184 229.806,125.851 226.5,131.5C 223.167,131.5 219.833,131.5 216.5,131.5C 221.331,121.833 226.664,112.5 232.5,103.5 Z"/></g>
<g><path style="opacity:0.967" fill="#177dc1" d="M 142.5,117.5 C 146.091,117.894 149.424,118.894 152.5,120.5C 153.048,123.084 154.715,124.084 157.5,123.5C 155.322,125.858 153.655,128.525 152.5,131.5C 150.833,131.5 149.167,131.5 147.5,131.5C 143.113,127.968 141.446,123.301 142.5,117.5 Z"/></g>
<g><path style="opacity:0.854" fill="#0e609b" d="M 208.5,131.5 C 205.5,131.5 202.5,131.5 199.5,131.5C 198.545,125.591 198.211,119.591 198.5,113.5C 201.833,113.5 205.167,113.5 208.5,113.5C 208.5,119.5 208.5,125.5 208.5,131.5 Z"/></g>
<g><path style="opacity:1" fill="#06497f" d="M 182.5,116.5 C 183.122,122.38 181.455,127.38 177.5,131.5C 169.167,131.5 160.833,131.5 152.5,131.5C 153.655,128.525 155.322,125.858 157.5,123.5C 161.846,123.666 166.179,123.499 170.5,123C 172.155,121.556 172.822,119.722 172.5,117.5C 175.939,117.747 179.272,117.414 182.5,116.5 Z"/></g>
<g><path style="opacity:1" fill="#0b558f" d="M 31.5,117.5 C 27.1322,121.867 23.1322,126.533 19.5,131.5C 14.5,131.5 9.5,131.5 4.5,131.5C 6.83333,128.833 9.16667,126.167 11.5,123.5C 15.5138,123.666 19.5138,123.499 23.5,123C 23.8333,122.667 24.1667,122.333 24.5,122C 23.5842,121.722 22.9175,121.222 22.5,120.5C 25.4018,119.216 28.4018,118.216 31.5,117.5 Z"/></g>
<g><path style="opacity:1" fill="#1673b9" d="M 113.5,121.5 C 116.833,121.5 120.167,121.5 123.5,121.5C 124.833,122.167 125.833,123.167 126.5,124.5C 125.5,127.5 123.5,129.5 120.5,130.5C 117.785,127.786 115.451,124.786 113.5,121.5 Z"/></g>
<g><path style="opacity:1" fill="#1676bb" d="M 11.5,123.5 C 9.16667,126.167 6.83333,128.833 4.5,131.5C 2.83333,131.5 1.16667,131.5 -0.5,131.5C -0.5,129.833 -0.5,128.167 -0.5,126.5C 0.267389,125.828 0.934056,124.995 1.5,124C 4.81677,123.502 8.1501,123.335 11.5,123.5 Z"/></g>
<g><path style="opacity:1" fill="#0f5e9a" d="M 46.5,111.5 C 47.7281,112.306 48.7281,113.306 49.5,114.5C 45.9412,119.827 47.2745,123.16 53.5,124.5C 51.9138,126.67 50.5804,129.004 49.5,131.5C 46.1667,131.5 42.8333,131.5 39.5,131.5C 40.7653,128.475 42.432,125.642 44.5,123C 42.7794,121.056 41.446,118.89 40.5,116.5C 43.0892,115.581 45.0892,113.914 46.5,111.5 Z"/></g>
<g><path style="opacity:1" fill="#146caf" d="M 80.5,123.5 C 79.3449,126.475 77.6782,129.142 75.5,131.5C 71.8333,131.5 68.1667,131.5 64.5,131.5C 64.9451,128.755 65.9451,126.255 67.5,124C 71.8206,123.501 76.1539,123.334 80.5,123.5 Z"/></g>
<g><path style="opacity:0.827" fill="#064479" d="M 126.5,124.5 C 128.471,126.808 130.471,129.142 132.5,131.5C 128.5,131.5 124.5,131.5 120.5,131.5C 120.5,131.167 120.5,130.833 120.5,130.5C 123.5,129.5 125.5,127.5 126.5,124.5 Z"/></g>
<g><path style="opacity:0.608" fill="#033e70" d="M 253.5,122.5 C 255.412,124.657 257.079,126.991 258.5,129.5C 258.5,130.167 258.5,130.833 258.5,131.5C 255.167,131.5 251.833,131.5 248.5,131.5C 247.42,129.004 246.086,126.67 244.5,124.5C 247.574,124.127 250.574,123.461 253.5,122.5 Z"/></g>
</svg>
